<svg width="170" height="170" viewBox="0 0 170 170" fill="none" xmlns="http://www.w3.org/2000/svg">
<g clip-path="url(#clip0_96_17351)">
<g clip-path="url(#clip1_96_17351)">
<path d="M134.445 1.00177C132.906 2.47294 131.681 4.25713 130.236 5.7596C127.063 9.04626 124.738 12.9276 122.351 16.7464C120.435 19.814 119.021 23.1945 117.168 26.3247C114.937 30.0809 113.241 34.15 110.571 37.7184C107.398 41.9441 104.288 46.2324 100.864 50.2703C97.5654 54.1204 94.0157 57.7514 90.5288 61.4449C86.3822 65.8584 82.801 70.7102 79.534 75.8123C77.5236 78.9738 76.4241 82.5421 75.4817 86.1731C74.1937 91.1188 73.5654 96.0957 73.3141 100.791C73.3141 101.918 73.2199 102.7 73.3141 103.42C73.534 104.985 72.9686 106.237 72.0262 107.396C71.3037 108.303 70.5811 109.211 69.8272 110.119C67.911 112.372 66.2147 114.783 64.4555 117.162C63.9215 117.882 63.3874 118.195 62.4136 118.132C60.5288 118.007 58.5811 118.007 56.6963 118.101C53.4607 118.288 50.2565 118.57 47.0209 118.852C46.7382 118.852 46.4869 118.914 46.2042 118.977C42.7801 119.76 43.534 122.765 43.6597 125.394C43.6911 126.176 43.5026 126.646 42.5916 126.802C40.801 127.115 39.3246 128.148 37.8482 129.15C36.2147 130.277 35.3979 131.873 35.2722 133.845C35.1152 136.913 35.9319 139.542 38.6021 141.358C39.6073 142.046 40.267 142.891 39.733 144.112C38.7592 146.303 37.8482 148.557 35.712 149.934C34.4241 150.779 33.4188 151.938 32.6335 153.19C30.8743 155.944 30.466 158.855 32.0366 161.923C33.5759 164.865 36.2147 166.587 39.1361 167.526C43.377 168.903 47.6178 170.437 52.1414 170.562C53.5864 170.625 55.0314 170.562 56.4764 170.781C58.801 171.125 61.1256 170.844 63.4503 170.781C66.089 170.687 68.6021 169.998 71.2094 169.654C73.377 169.372 75.5759 169.153 77.712 168.496C80.5707 167.588 83.2408 166.43 85.0314 163.863C86.445 161.829 86.9791 159.669 86.0995 157.259C85 154.223 83.3351 151.656 80.4764 149.934C79.8482 149.559 79.4712 148.964 79.1885 148.369C78.623 147.117 78.0576 145.865 77.6492 144.55C77.2094 143.111 77.2722 141.733 78.3717 140.512C78.8743 139.949 79.2827 139.292 79.6597 138.634C80.5707 137.101 80.7906 135.473 80.4136 133.689C79.6283 130.12 77.2408 128.054 74.1309 126.583C72.2775 125.707 72.2775 125.707 72.3717 123.735C72.3717 123.391 72.4346 123.046 72.5288 122.733C73 121.419 72.2147 120.573 71.4607 119.728C70.9267 119.134 70.1728 119.384 69.5131 119.196C68.3194 118.821 68.0995 118.476 68.822 117.475C70.1414 115.722 71.3665 113.906 72.7801 112.247C73.6597 111.214 74.5707 111.12 75.6702 111.465C76.4555 111.715 77.2094 111.903 78.0576 111.903C81.2618 111.872 84.3403 111.402 87.3874 110.432C90.5288 109.43 93.6702 108.428 96.2775 106.269C100.11 103.107 103.723 99.7893 107.178 96.2209C109.346 93.9985 110.979 91.4944 112.141 88.7085C113.618 85.1402 115.346 81.7596 117.199 78.379C118.832 75.3741 120.56 72.3379 121.534 69.0825C122.665 65.2637 123.89 61.4762 125.084 57.7201C126.277 53.9952 127.628 50.3329 129.073 46.7019C130.236 43.7596 131.492 40.8799 132.435 37.8749C134.131 32.4598 135.356 26.9194 136.801 21.4416C136.927 20.9721 136.958 20.5026 137.084 20.0331C138.215 15.1187 138.246 10.1105 138.969 5.13357C139.126 3.97542 139.031 2.78596 138.529 1.72171C137.586 -0.312888 136.11 -0.594601 134.476 0.970473L134.445 1.00177ZM115.88 31.552C117.984 27.8584 120.12 24.1962 122.257 20.5026C122.759 19.6262 123.23 18.6871 123.764 17.8107C123.984 17.4351 124.204 16.9029 124.832 17.2159C124.079 19.5949 124.267 22.0677 124.204 24.5092C124.141 26.5438 123.356 28.1402 122.037 29.58C121.094 31.8963 119.681 33.8996 118.236 35.9029C117.827 37.2176 116.822 38.2192 116.225 39.4713C116.162 39.5965 115.88 39.6591 115.723 39.753C115.691 39.5652 115.628 39.3461 115.628 39.1583C115.691 37.781 115.817 36.4351 115.848 35.0578C115.848 34.3379 116.162 33.5866 115.597 32.898C115.22 32.4598 115.691 31.9902 115.911 31.5833L115.88 31.552ZM120.089 35.1517C119.932 34.4318 120.592 33.9935 120.717 33.3675C121 34.1187 120.843 34.7448 120.089 35.1517ZM109.848 51.7728C111.482 50.1764 112.424 48.1105 113.398 46.1072C115.22 42.351 117.576 38.9079 119.775 35.3708C119.806 35.3082 119.963 35.2769 120.058 35.2456C119.524 37.0924 118.487 38.6888 117.576 40.3164C115.848 43.5092 114.058 46.6393 112.236 49.7695C111.859 50.4268 111.356 50.9902 110.916 51.585C110.602 52.0232 110.225 51.8667 109.848 51.7415V51.7728ZM109.408 53.8074C108.937 54.9968 108.372 56.1237 107.304 56.9062C107.775 55.7168 108.466 54.6525 109.22 53.6509C109.22 52.9622 109.942 52.524 109.848 51.8041C110.288 52.5866 110.288 53.3066 109.408 53.8074ZM111.419 38.8453C112.518 37.4367 113.335 35.8403 114.309 34.3692C114.403 34.2126 114.592 33.9935 114.749 33.9935C115.094 33.9935 115.094 34.3379 115.094 34.5883C115.094 36.6542 115.094 38.6888 115.094 40.7547C115.094 41.099 115.031 41.412 114.843 41.725C113.272 44.5421 111.733 47.3593 110.162 50.1764C110.037 50.4268 109.88 50.6459 109.691 50.865C109.565 50.9902 109.346 51.1154 109.188 51.1154C108.906 51.1154 108.937 50.8337 108.937 50.6459C108.937 49.4252 108.937 48.1731 108.937 46.6393C108.058 43.7283 109.534 41.1929 111.387 38.814L111.419 38.8453ZM99.6387 53.3692C99.8586 53.15 100.047 52.7118 100.455 52.8996C100.832 53.0561 100.675 53.4944 100.707 53.8074C100.801 55.842 101.021 57.9079 101.398 59.9112C101.461 60.1616 101.461 60.4433 101.806 60.5059C101.838 60.3181 101.901 60.099 101.901 59.9112C101.963 58.4713 101.712 57.0314 101.586 55.6229C101.461 54.3395 101.366 53.0248 101.712 51.7415C101.775 51.4911 101.869 51.1781 102.183 51.2094C102.277 51.2094 102.403 51.5537 102.435 51.7102C102.592 53.4631 102.749 55.2472 102.906 57.0001C102.906 57.3444 103.031 57.6575 103.126 57.9705C103.126 58.0331 103.22 58.127 103.251 58.127C103.346 58.0644 103.534 58.0018 103.534 57.9392C103.565 57.6575 103.534 57.407 103.534 57.1253C103.44 55.2785 103.314 53.4318 103.22 51.585C103.22 50.9589 103.157 50.3329 103.283 49.7382C103.377 49.2061 103.785 48.4235 104.194 48.4861C104.885 48.58 104.508 49.3626 104.508 49.8321C104.508 51.3972 104.602 52.9622 104.791 54.5273C104.822 54.809 104.853 55.0594 105.136 55.2159C105.199 54.9655 105.293 54.6838 105.293 54.4334C105.293 52.2423 105.293 50.0512 105.419 47.8601C105.513 46.0759 106.895 45.356 107.681 44.1665C107.901 43.8222 108.152 44.1665 108.183 44.4795C108.372 47.0776 108.529 49.6756 108.686 52.2423C108.686 52.6805 108.466 53.0248 108.246 53.3692C105.953 57.1879 103.691 61.0067 101.366 64.7942C100.895 65.5767 100.424 66.4532 99.5131 66.8601C99.1675 63.636 98.822 60.412 98.5078 57.1566C97.4084 55.4038 98.6021 54.3395 99.7016 53.2753L99.6387 53.3692ZM93.1675 61.038C93.1989 60.8502 93.1989 60.5998 93.3246 60.4433C93.7644 59.6608 94.3612 58.5026 95.0838 58.6278C95.9948 58.8156 95.6492 60.099 95.7435 60.9441C96.0576 63.3856 96.2147 65.8585 96.1832 68.3313C96.1832 68.6756 96.2775 69.0199 96.3089 69.3642C96.3403 69.6459 96.466 69.8963 96.7801 69.8963C96.8115 69.8963 96.9372 69.552 96.9058 69.3642C96.7173 66.1402 96.7801 62.9161 96.089 59.7547C95.9633 59.1599 95.9633 58.5339 95.9633 57.9079C95.9633 57.3757 96.3403 57.0314 96.6544 56.6871C96.7801 56.5306 97 56.468 97.1571 56.3428C97.2513 56.5306 97.4084 56.6871 97.4398 56.8749C97.7225 58.3461 97.9738 59.8486 98.2565 61.3197C98.5707 63.01 98.5707 64.7316 99.0733 66.3906C99.1361 66.641 99.2304 66.8601 99.4188 67.0166C99.4188 67.2044 99.5131 67.4861 99.4188 67.6113C98.3194 69.3329 97.2199 71.0545 96.089 72.7761C95.8063 73.2143 95.3979 73.183 95.2722 72.5883C95.0838 71.8057 94.8953 71.0232 94.8325 70.1781C94.6754 67.2357 94.1099 64.3873 93.4817 61.5075C93.4503 61.351 93.2932 61.1945 93.1989 61.038H93.1675ZM99.3874 69.865C99.4188 70.4911 99.0733 70.9919 98.7906 71.524C96.4974 75.8123 93.9529 79.9128 91.1885 83.9194C89.2722 86.6739 87.3246 89.3972 85.4084 92.1517C85.2513 92.3708 85.0942 92.6525 84.7801 92.3708C84.7487 92.3395 84.8743 92.0265 84.9686 91.87C86.5393 89.5537 88.0785 87.2061 89.6492 84.8898C92.3822 80.8832 94.7696 76.6575 97.3455 72.5257C97.911 71.5866 98.2565 70.3972 99.3874 69.8963V69.865ZM77.6178 84.3263C77.8063 83.8568 77.712 82.9804 78.3717 83.043C79 83.1056 78.6859 83.9194 78.8115 84.3889C78.9058 84.7332 79 84.9837 79.2827 85.1715C78.6544 82.636 79.1571 80.4136 80.6649 78.1599C83.0838 74.5603 85.0942 70.6789 87.733 67.1731C87.8586 67.0166 87.8586 66.7975 87.9215 66.6097H88.0157L87.9529 66.6723C88.7068 66.328 89.3665 66.015 89.8377 65.0759C90.623 63.5421 91.5026 61.9458 93.1047 61.0067C93.5445 64.7942 93.9529 68.5504 94.3927 72.3379C94.3927 72.4005 94.3927 72.4944 94.4241 72.5257C95.3665 74.2472 94.4869 75.5619 93.5445 76.9392C91.4398 80.1319 89.712 83.5751 87.356 86.6113C87.1989 86.8304 87.0733 87.1122 86.8848 87.2687C86.5707 87.5504 86.2565 87.5191 86.1623 87.0496C86.0052 86.2357 85.8482 85.4219 85.7853 84.608C85.6597 83.3873 85.4712 82.2291 85.0942 81.071C85 83.3873 85.0942 85.7036 85.5969 87.9573C85.7539 88.552 85.7225 88.9902 85.377 89.4911C83.3665 92.2769 81.356 95.0314 79.3455 97.8173C79.1885 98.0051 79.0314 98.2868 78.7173 98.1929C78.4345 98.099 78.3717 97.786 78.3089 97.5042C77.7435 94.1237 77.178 90.7431 76.6754 87.3626C76.4869 86.2044 77.2094 85.2654 77.5864 84.2637L77.6178 84.3263ZM75.8272 89.898C75.89 89.6163 75.9215 89.3033 76.2356 89.272C76.6754 89.2094 76.5497 89.6476 76.5811 89.8667C76.9895 92.9655 77.3979 96.0644 77.8377 99.1632C77.9005 99.6641 77.8377 100.102 77.5236 100.509C76.8953 101.386 76.267 102.293 75.6073 103.17C75.4503 103.389 75.2618 103.608 74.9476 103.545C74.5707 103.452 74.6963 103.107 74.6649 102.888C74.6649 102.544 74.6649 102.199 74.6649 101.855C75.1047 97.8799 75.0105 93.842 75.8586 89.898H75.8272ZM63.3874 121.982C63.89 121.293 64.4241 120.636 64.9267 119.979C65.0523 120.918 64.5497 121.7 64.0785 122.452C63.9215 122.702 63.6073 123.015 63.2618 122.702C63.0419 122.483 63.2618 122.201 63.3874 122.013V121.982ZM60.6544 121.137C60.7173 120.886 60.8115 120.542 60.9372 120.26C61 120.104 61.0942 119.822 61.2827 120.073C61.534 120.386 61.5026 120.824 61.3455 121.199C61.2513 121.356 61.0942 121.544 60.9372 121.575C60.6859 121.638 60.6859 121.387 60.6859 121.137H60.6544ZM57.6387 121.387C57.5445 120.824 57.6387 119.885 58.2042 119.916C58.8639 119.979 58.644 120.855 58.6126 121.45C58.3612 121.919 58.9895 122.89 58.2042 122.921C57.0733 122.952 57.7644 121.919 57.6702 121.387H57.6387ZM56.5707 120.01C57.1675 120.01 56.5707 121.074 56.822 121.575C56.6021 122.076 57.2304 122.796 56.5393 122.89C55.6597 123.015 55.9424 122.139 55.9738 121.7C56.0366 121.074 55.6597 120.01 56.5707 120.041V120.01ZM52.9267 121.919C52.9267 121.638 52.9895 121.387 53.0209 121.106C53.1466 120.198 53.4607 119.947 54.3403 120.041C55.1256 120.104 55.0942 120.699 55.1571 121.293C55.0942 121.575 55.0314 121.919 54.9686 122.232C54.8115 123.109 54.1518 122.984 53.555 122.952C52.8325 122.921 52.8953 122.42 52.9267 121.919ZM51.5759 120.354C52.2042 120.417 52.1099 121.043 52.1728 121.481C52.0785 122.013 52.1414 122.671 51.3246 122.608C50.5393 122.545 50.6335 121.888 50.6021 121.387C50.6021 120.73 50.9162 120.292 51.5759 120.386V120.354ZM51.9215 124.048C51.5131 124.048 51.1361 124.079 50.6335 124.111C49.9424 124.33 49.2827 123.923 48.5602 123.797C48.3717 123.797 48.1518 123.704 48.2147 123.484C48.2775 123.265 48.5602 123.328 48.7487 123.359C49.4084 123.516 50.0366 123.672 50.6963 123.86C51.1047 123.985 51.5759 123.578 51.9215 124.017V124.048ZM48.7487 120.761C49.3141 120.605 49.6283 120.855 49.6597 121.481C49.6911 122.201 49.2827 122.232 48.7487 122.17C48.0262 122.045 46.7382 122.107 46.7696 121.606C46.8325 120.761 47.9948 120.949 48.7487 120.761ZM46.8325 124.267C48.7173 124.956 50.7277 124.987 52.6754 125.363C55.5026 125.895 58.3612 126.145 61.2199 126.114C62.3508 126.114 62.445 126.27 62.5393 127.428C62.6649 129.098 61.9215 129.964 60.3089 130.026C59.7749 130.026 59.2094 130.089 58.6754 130.152C55.0942 130.402 51.6073 129.839 48.2147 128.806C47.2094 128.493 46.3927 127.929 45.5759 127.241C45.1047 126.865 44.8848 126.458 44.822 125.863C44.6649 123.985 45.0105 123.641 46.8325 124.298V124.267ZM37.3455 137.445C35.8377 134.878 37.0314 131.091 39.1675 129.745C40.2356 129.087 41.3979 128.681 42.4974 128.148C42.8115 127.992 43.2199 127.898 43.4398 128.242C43.6597 128.618 43.3141 128.9 43.0314 129.056C41.555 129.901 40.5811 131.247 39.7958 132.718C39.3246 133.626 38.9162 134.597 39.1047 135.661C39.1047 135.849 39.1989 136.099 39.3246 136.162C39.5759 136.255 39.6702 135.974 39.7016 135.786C39.7958 135.379 39.8272 134.972 39.9215 134.565C40.2984 132.468 41.555 130.966 43.2513 129.807C44.4136 129.025 45.5759 128.649 47.0524 129.463C48.5288 130.277 50.2251 130.746 51.9843 130.84C52.8639 130.903 53.7435 131.122 54.623 131.31C55.5654 131.529 56.5078 131.592 57.4817 131.435C58.9267 131.216 60.3717 131.216 61.8167 131.31C62.5078 131.341 63.1989 131.404 63.8586 131.592C65.6806 132.186 65.8377 132.718 64.7068 134.346C64.5811 134.503 64.4241 134.659 64.3298 134.847C64.267 134.941 64.3298 135.097 64.3298 135.223C64.4555 135.223 64.6126 135.223 64.6754 135.191C65.0209 134.878 65.3351 134.503 65.712 134.221C65.8377 134.127 66.1518 134.127 66.2775 134.221C66.4031 134.315 66.4345 134.597 66.466 134.784C66.466 135.16 66.2775 135.442 66.0262 135.692C65.7434 135.974 65.3665 136.193 65.1152 136.506C64.6754 137.007 63.9843 137.288 63.7644 137.977C64.5811 138.165 64.8325 137.288 65.4293 137.038C65.8691 136.85 66.2775 136.005 66.7173 136.443C67.2827 136.944 66.4974 137.351 66.1832 137.758C65.8377 138.165 65.4607 138.572 65.1152 138.947C65.712 139.229 66.0262 138.634 66.4345 138.384C66.623 138.29 66.8115 138.259 66.9686 138.447C67.0942 138.603 67.1885 138.822 67.0314 139.01C66.6859 139.417 66.3089 139.793 65.9319 140.199C65.8063 140.356 65.5864 140.512 65.7435 140.7C65.9005 140.919 66.1518 140.794 66.2461 140.669C66.7801 140.074 67.1571 140.45 67.534 140.826C67.4084 141.232 67.1885 141.545 66.8429 141.796C66.623 141.952 66.3403 142.14 66.5602 142.422C66.8115 142.735 67.0628 142.422 67.2513 142.265C67.8482 141.796 68.3822 141.295 68.9791 140.826C69.1361 140.7 69.4503 140.606 69.5445 140.669C69.7644 140.857 69.7958 141.201 69.6702 141.42C69.1675 142.453 68.3822 143.204 67.2199 143.392C64.8953 143.737 62.6021 144.206 60.2461 143.956C59.1466 143.83 58.0471 143.799 56.9476 143.924C53.4607 144.3 50.0995 143.674 46.7068 143.079C46.0157 142.954 45.3246 142.891 44.6963 142.704C43.5969 142.391 42.4346 142.109 41.6178 141.17C41.3665 140.857 40.9895 140.544 40.6126 140.45C38.9162 140.106 38.2251 138.822 37.4398 137.508L37.3455 137.445ZM63.4503 128.43C63.4503 128.023 63.4503 127.679 63.4503 127.335C63.4503 127.147 63.4817 126.896 63.7644 126.959C63.8586 126.959 63.9529 127.147 63.9843 127.272C64.0157 127.616 64.0471 127.929 64.0157 128.274C63.9843 128.774 64.267 129.682 63.7644 129.682C63.1675 129.682 63.5445 128.837 63.4503 128.43ZM64.7382 128.931C64.8325 127.898 64.8953 127.209 64.9895 126.521C64.9895 126.333 65.2094 126.208 65.3037 126.02C65.3665 126.145 65.4921 126.239 65.4921 126.364C65.5864 127.303 65.6806 128.274 65.712 129.213C65.712 129.557 65.4921 129.87 65.0523 129.807C64.644 129.745 64.7696 129.4 64.7382 129.15C64.7382 128.962 64.7382 128.743 64.7382 128.9V128.931ZM66.5916 127.209C66.5288 126.802 66.623 126.396 66.6859 125.989C66.6859 125.801 66.8115 125.55 67.0314 125.613C67.1571 125.644 67.3141 125.895 67.3141 126.083C67.3141 126.489 67.2827 126.896 67.2513 127.303C67.2827 128.086 67.7539 128.9 66.9372 129.557C65.8691 128.931 66.7173 127.992 66.5916 127.209ZM69.1361 127.115C69.1361 127.71 69.1675 128.305 69.1361 128.931C69.1361 129.244 68.7592 129.244 68.5078 129.275C68.2565 129.275 68.1309 129.15 68.0995 128.931C68.0052 127.71 68.288 126.552 68.5707 125.363C68.5707 125.3 68.7906 125.206 68.9162 125.237C69.0105 125.237 69.1361 125.425 69.1361 125.519C69.1361 126.051 69.0733 126.583 69.0419 127.115H69.1675H69.1361ZM68.2251 138.04C68.2251 138.04 67.8796 137.914 67.8167 137.727C67.7539 137.132 68.445 136.099 68.9791 136.036C69.2932 136.005 69.4503 136.318 69.4188 136.569C69.3874 137.351 68.7277 137.633 68.1937 138.04H68.2251ZM69.5131 138.54C69.8272 139.073 69.2618 139.699 68.0052 140.199C68.0052 139.104 68.445 138.384 69.1989 138.353C69.2932 138.353 69.4817 138.447 69.5131 138.54ZM68.5707 134.221C68.7906 134.221 68.9791 134.377 68.9791 134.565C69.0419 134.972 68.2251 135.786 67.8482 135.723C67.7539 135.723 67.6597 135.567 67.6283 135.473C67.4712 134.941 68.0052 134.252 68.5707 134.19V134.221ZM67.5026 133.845C67.0628 133.845 67.0942 133.407 67.0628 133.125C67.0314 132.938 67.1256 132.718 67.3455 132.718C67.7225 132.718 67.9424 132.938 67.9738 133.313C67.9738 133.626 67.7539 133.845 67.5026 133.845ZM70.801 135.598C70.4869 135.692 70.3298 135.41 70.3298 135.129C70.3298 134.565 70.644 134.127 71.0523 134.096C71.3351 134.158 71.5864 134.283 71.6178 134.597C71.6806 135.191 71.2408 135.442 70.801 135.598ZM71.712 136.287C71.712 136.287 71.9633 136.412 71.9948 136.537C72.1518 137.069 71.2408 138.134 70.7068 138.102C70.6126 138.102 70.4869 137.946 70.4555 137.852C70.2984 137.288 71.1152 136.287 71.712 136.318V136.287ZM70.0471 133.501C69.8272 133.501 69.6702 133.282 69.733 133.063C69.7958 132.781 69.9843 132.593 70.3298 132.562C70.4241 132.718 70.6126 132.875 70.6126 133.031C70.5811 133.313 70.3927 133.532 70.0471 133.501ZM71.1152 144.331C71.3351 144.331 71.555 144.394 71.4607 144.644C71.3351 145.02 71.1466 145.396 70.8953 145.709C70.3927 146.303 70.1728 147.18 69.2932 147.43C69.2932 147.43 69.0733 147.086 69.0733 146.929C69.1989 146.053 70.4869 144.394 71.0838 144.331H71.1152ZM75.1989 133.313C75.1989 133.313 75.0105 133 75.0105 132.812C75.0105 132.437 75.3246 132.28 75.6702 132.124C75.733 132.311 75.8586 132.499 75.8272 132.656C75.7644 133 75.5131 133.219 75.1989 133.313ZM76.3927 133.783C76.3927 133.783 76.644 133.877 76.6754 133.97C77.0209 134.784 76.2356 135.129 75.89 135.629C75.8272 135.723 75.6073 135.755 75.5445 135.723C75.4503 135.661 75.4503 135.504 75.3874 135.348C75.4503 134.659 75.7958 134.158 76.3927 133.783ZM75.4188 143.768C75.1047 143.643 74.979 143.424 75.3246 143.236C75.5759 143.079 75.9215 143.142 76.0157 143.424C76.1414 143.737 76.1099 144.081 76.1414 144.456C76.1414 144.644 76.2356 144.895 76.1414 145.02C75.1989 146.335 74.2565 147.649 73.3141 148.964C73.2199 149.089 73.0628 149.058 72.9686 148.933C72.9058 148.807 72.8115 148.651 72.8743 148.557C73.4712 147.649 74.0681 146.741 74.6649 145.865C74.979 145.427 75.2618 144.957 75.6073 144.55C75.89 144.206 75.8272 143.956 75.4188 143.768ZM77.178 149.966C76.5497 151.186 75.6073 152.157 74.7277 153.19C74.6649 153.252 74.445 153.283 74.3822 153.221C74.288 153.158 74.288 153.002 74.2251 152.845C74.445 152.094 74.7277 151.311 75.2304 150.685C75.5759 150.247 75.9215 149.84 76.2984 149.465C76.5183 149.246 76.5497 148.713 76.9895 148.901C77.4607 149.12 77.3979 149.559 77.178 149.934V149.966ZM77.3037 151.312C77.3979 152.908 76.0785 153.722 75.2932 154.849C75.2618 154.911 75.0105 154.849 74.9476 154.817C74.8534 154.755 74.7906 154.536 74.822 154.473C75.0733 154.066 75.356 153.69 75.6387 153.315C76.1728 152.657 76.7382 152 77.3037 151.312ZM73.9738 150.905C73.9738 150.905 73.6911 150.967 73.5969 150.905C73.5026 150.842 73.4712 150.685 73.4084 150.498C73.4712 150.341 73.5026 150.122 73.5969 149.966C74.3194 148.964 75.0733 147.994 75.7958 147.023C75.9215 146.867 76.0785 146.741 76.2984 146.867C76.3927 146.929 76.4869 147.117 76.4555 147.211C76.0157 148.682 75.0733 149.84 73.9738 150.873V150.905ZM71.8377 154.223C72.1204 154.254 72.2775 154.066 72.4974 153.941C72.8115 153.753 73.0628 153.158 73.5026 153.534C74.0366 153.972 73.7539 154.536 73.4084 154.974C73.0314 155.443 72.5916 155.882 72.1518 156.32C71.9633 156.508 71.712 156.727 71.4607 156.476C71.3037 156.288 71.1466 156.007 71.1466 155.756C71.0838 155.13 71.8691 154.849 71.8377 154.223ZM70.5811 154.254C70.4241 153.972 70.4241 153.596 70.8325 153.409C71.178 153.252 71.6178 152.97 71.9319 153.283C72.0576 153.409 71.8691 153.847 71.7749 154.16C71.3665 154.348 71.0209 155.036 70.5811 154.254ZM73.0942 144.895C72.9372 145.114 72.8115 145.364 72.623 145.552C72.5602 145.646 72.3717 145.709 72.2775 145.677C72.1832 145.646 72.1832 145.458 72.089 145.302C72.2775 145.051 72.4346 144.769 72.6859 144.519C72.8115 144.394 72.9686 144.175 73.1571 144.363C73.3141 144.519 73.1571 144.738 73.0628 144.895H73.0942ZM72.2147 150.185C71.9633 151.061 71.3979 151.718 70.644 152.188C70.5811 152.219 70.3927 152.125 70.2984 152.094C70.2984 152.094 70.2984 152 70.2356 151.844C70.7696 151.218 71.3037 150.56 71.8691 149.872C71.8691 149.84 72.0262 149.84 72.0576 149.872C72.1204 149.966 72.2461 150.122 72.2147 150.185ZM70.1414 149.402C69.9215 149.684 69.6387 149.559 69.5445 149.277C69.356 148.807 70.5497 147.023 71.0838 146.961C71.3037 146.992 71.4293 147.18 71.3665 147.368C71.1466 148.15 70.6754 148.807 70.1414 149.402ZM64.8639 148.15C64.9895 148.901 64.7068 149.465 64.0785 149.872C65.3665 150.091 65.4293 150.153 65.0209 151.218C64.8953 151.562 64.7382 151.875 64.5811 152.188C64.8953 152.157 65.2408 151.781 65.4607 152.157C65.712 152.532 65.6178 153.033 65.1466 153.158C64.4869 153.346 63.8272 153.409 63.1361 153.471C62.445 153.534 62.1623 153.127 62.0995 152.501C61.8796 150.247 62.0366 148.025 62.1623 145.802C62.1937 145.333 62.5393 145.302 62.8848 145.27C64.0471 145.176 65.2094 145.114 66.3717 145.083C66.9686 145.083 67.0314 145.427 66.8115 145.896C66.6544 146.209 66.466 146.491 66.2461 146.741C65.7749 147.242 65.5864 147.023 65.555 146.46C65.555 146.147 65.3979 145.928 65.0838 145.959C64.7382 145.99 64.7068 146.303 64.7068 146.585C64.7382 147.117 64.7696 147.681 64.8639 148.213V148.15ZM67.534 146.303C67.534 146.303 67.6597 146.303 67.7539 146.303C67.8167 146.397 67.9424 146.491 67.9738 146.585C68.0681 147.148 66.7801 149.058 66.2461 149.12C66.1832 149.12 66.0262 149.027 65.9948 148.933C65.8063 148.4 66.9372 146.491 67.534 146.272V146.303ZM66.9372 149.59C67.3141 149.152 67.5654 148.119 68.1309 148.432C68.9162 148.839 68.0052 149.559 67.9738 150.153C67.7539 150.185 67.6283 150.341 67.5654 150.56C67.377 150.717 67.1571 150.873 66.9372 150.998C66.7801 151.092 66.5916 151.124 66.4031 151.186C66.3403 150.998 66.2461 150.811 66.2775 150.623C66.2775 150.185 66.6544 149.903 66.9058 149.621L66.9372 149.59ZM67.534 150.936C67.534 150.936 67.5969 150.717 67.6283 150.623C67.8796 150.623 68.0052 150.466 68.0366 150.247C68.5078 150.31 68.979 150.372 68.822 151.061C68.822 151.124 68.7592 151.186 68.7592 151.249C68.3822 152.094 67.2199 153.19 67 152.939C66.1832 152.031 67.4084 151.625 67.5654 150.936H67.534ZM57.7958 146.147C57.4817 146.147 57.3874 146.46 57.356 146.71C57.1675 148.4 57.0105 150.091 57.1675 151.812C57.3246 153.69 57.2932 153.69 55.534 153.69C52.1099 153.69 52.1414 153.69 52.8639 150.31C53.0838 149.308 53.2408 148.307 53.3351 147.274C53.3979 146.366 53.8377 145.959 54.7487 145.865C56.5707 145.709 58.4241 145.458 60.2461 145.27C60.9058 145.208 61.2513 145.521 61.1256 146.272C61.0314 146.867 61.1256 147.493 61.1256 148.119H61.0314C61.1571 149.496 61.3141 150.842 61.4084 152.219C61.5026 153.409 61.4084 153.503 60.2147 153.597C58.8115 153.701 58.089 153.033 58.0471 151.593C57.9843 150.028 58.1414 148.463 58.3298 146.898C58.3927 146.522 58.267 146.178 57.8272 146.178L57.7958 146.147ZM52.4241 147.242C52.4241 147.242 52.4241 147.368 52.4241 147.493C52.4241 149.026 52.1099 150.592 51.7644 152.094C51.5131 153.127 51.1047 153.283 49.8796 152.939C48.9686 152.689 48.8115 152.501 49.0942 151.437C49.5026 149.934 49.9424 148.432 50.1623 146.867C50.3194 145.74 50.6649 145.583 51.6387 145.677C52.7382 145.802 52.4241 146.554 52.4241 147.211V147.242ZM39.2618 148.15C39.9843 146.835 40.7382 145.521 41.4607 144.206C41.7749 143.611 42.1832 143.486 42.8115 143.643C44.6649 144.143 46.5497 144.613 48.4031 145.083C49.0942 145.27 49.5026 145.615 49.377 146.585C49.0942 148.244 48.8743 150.153 48.1204 151.938C47.9319 152.344 47.6492 152.595 47.1466 152.438C44.7906 151.656 42.2775 151.562 40.0471 150.404C38.5078 149.621 38.5078 149.59 39.2932 148.15H39.2618ZM38.4136 165.272C38.4136 165.272 38.4136 165.272 38.3822 165.272C38.2251 165.335 38.0366 165.46 37.911 165.397C35.9948 164.521 34.2356 163.425 33.3874 161.453C32.822 160.17 32.1309 158.824 32.5078 157.321C32.7592 156.32 32.9162 156.32 33.7644 156.852C34.8325 157.509 35.1466 158.417 35.3665 159.544C35.7749 161.766 36.4974 163.863 38.4764 165.241C38.4764 165.241 38.445 165.241 38.4136 165.241V165.272ZM38.9162 164.771C38.6963 164.239 38.2251 163.895 37.8482 163.488C36.7801 162.298 36.5288 160.858 36.3403 159.356C36.2775 158.918 36.5288 158.699 36.9372 158.886C37.2513 159.012 37.6911 159.168 37.7539 159.419C38.2565 161.171 39.1675 162.83 38.9162 164.74V164.771ZM42.2775 167.025C41.6178 166.931 41.0838 166.649 40.801 166.023C40.0785 164.333 39.4188 162.611 39.1047 160.765C38.9791 160.139 39.2618 159.857 39.9215 160.045C40.6126 160.264 41.0524 160.358 41.2094 161.422C41.4607 162.924 42.089 164.396 42.466 165.898C42.5288 166.148 42.623 166.43 42.6859 166.649C42.623 166.868 42.4974 167.025 42.2461 166.994L42.2775 167.025ZM45.2618 167.713C44.288 167.651 43.7539 167.213 43.5026 166.305C43.1571 164.834 42.4974 163.488 42.3403 161.954C42.2775 161.14 42.4346 160.765 43.3455 160.921C44.2251 160.765 44.7592 161.203 44.9791 162.048C45.3874 163.644 45.7958 165.241 46.1414 166.837C46.3613 167.839 46.2984 167.776 45.2304 167.713H45.2618ZM49.3141 168.089C47.8377 168.089 47.2722 167.745 46.9267 166.399C46.5811 165.084 46.3298 163.738 46.0785 162.424C45.9529 161.672 46.3298 161.265 47.1466 161.328C47.6178 161.359 48.089 161.453 48.5602 161.516C49 161.61 49.1257 161.86 49.2827 162.298C49.8167 163.926 49.8482 165.648 50.1937 167.307C50.3508 168.058 49.7539 167.995 49.3141 168.058V168.089ZM53.9005 165.961C53.9005 165.961 53.8063 166.524 53.7749 166.931C53.712 167.526 54.1832 168.34 52.9581 168.34C51.4503 168.34 51.0105 168.183 50.8534 167.025C50.6649 165.522 50.5707 164.02 50.445 162.517C50.3822 161.985 50.6021 161.766 51.1361 161.829C51.1989 161.829 51.2618 161.86 51.3246 161.86C53.9948 162.236 54.089 162.392 53.9319 165.961H53.9005ZM58.0785 165.554C58.0785 165.992 58.0785 166.336 58.0157 166.649C57.9215 167.213 58.3298 167.995 57.6387 168.34C56.8848 168.715 56.0366 168.59 55.2199 168.402C54.7173 168.308 54.5916 167.87 54.623 167.463C54.6544 166.023 54.7173 164.583 54.8115 163.175C54.8115 162.705 55.1571 162.517 55.6597 162.486C57.8586 162.361 58.1099 162.58 58.1099 164.802C58.1099 165.084 58.1099 165.335 58.1099 165.554H58.0785ZM62.0681 165.585C62.0052 166.461 60.4031 168.214 59.5864 168.34C59.2094 168.402 58.9267 168.246 58.8639 167.713C58.9581 167.557 59.0838 167.307 59.2408 167.087C59.8377 166.43 60.466 165.773 61.0628 165.147C61.2827 164.928 61.5026 164.521 61.8796 164.802C62.0366 164.928 62.0995 165.303 62.0681 165.554V165.585ZM58.9267 164.083C59.0838 162.799 60.2775 162.204 61.4398 162.862C61.7225 163.018 61.7539 163.3 61.5654 163.55C60.9686 164.302 60.4031 165.053 59.7749 165.773C59.6178 165.961 59.3665 166.211 59.0838 166.055C58.8325 165.898 58.8953 165.585 58.8953 165.335C58.8953 165.209 58.8953 165.053 58.8953 164.928H58.9267C58.9267 164.646 58.9267 164.396 58.9267 164.114V164.083ZM65.3665 167.87C65.2094 167.87 64.9895 167.933 64.9581 167.62C65.1466 167.275 65.3665 166.931 65.8063 166.994C65.8691 166.994 65.9633 167.181 65.9633 167.275C65.9633 167.651 65.712 167.839 65.3351 167.87H65.3665ZM66.2775 165.022C65.712 166.18 64.801 167.15 63.6702 167.776C63.0733 168.12 63.0733 167.526 63.0419 167.119C62.9791 166.399 63.1361 165.804 63.7016 165.272C64.1099 164.896 64.4241 164.458 64.801 164.083C65.178 163.707 65.5864 162.987 66.0576 163.237C66.7173 163.582 66.5288 164.521 66.2775 165.022ZM63.0419 163.801C63.1047 163.175 63.6073 162.674 64.1099 162.768C64.1728 162.893 64.3612 163.143 64.3298 163.237C64.0785 163.707 63.7958 164.208 63.1989 164.333C63.1989 164.333 63.0105 163.957 63.0419 163.801ZM69.5131 167.713C69.3246 167.807 69.1361 167.776 69.0105 167.463C68.9791 167.213 69.1989 167.056 69.4188 166.9C69.6073 166.774 69.8272 166.837 69.89 167.056C69.9529 167.369 69.7644 167.588 69.5131 167.713ZM70.1728 164.709C69.5445 165.741 68.7277 166.681 67.8167 167.463C67.5969 167.651 67.3455 167.839 67.0942 167.713C66.8743 167.557 66.9058 167.244 67 166.806C67 164.959 68.5393 163.957 69.7958 162.737C69.9215 162.611 70.2042 162.549 70.3612 162.611C70.4869 162.674 70.5497 162.956 70.5497 163.143C70.5811 163.707 70.4869 164.239 70.2042 164.709H70.1728ZM67.4084 163.269C67.377 162.893 67.534 162.611 67.911 162.486C68.0052 162.455 68.2565 162.549 68.2565 162.611C68.2565 162.987 68.0366 163.237 67.7539 163.456C67.6283 163.394 67.4084 163.363 67.4084 163.3V163.269ZM70.7382 167.056C70.7382 167.056 70.7382 166.681 70.7382 166.806C70.9267 165.71 71.2094 164.959 71.6492 164.239C72.0576 163.582 73.1571 163.081 72.2775 161.985C72.089 161.735 72.6544 161.516 72.9372 161.391C73.377 161.234 73.8796 161.015 74.1623 161.578C74.2565 161.798 74.1623 162.142 74.5707 162.048C74.8534 161.985 75.1047 161.422 75.3874 161.829C75.6702 162.236 75.2618 162.58 74.979 162.862C73.7853 164.145 72.5602 165.46 71.3665 166.712C71.2094 166.868 71.0523 167.181 70.7696 167.056H70.7382ZM73.2513 167.307C72.9686 167.369 72.7173 167.275 72.5916 166.9C72.9058 166.242 73.4712 165.773 74.0366 165.303C74.1623 165.209 74.288 165.303 74.3194 165.46C74.3822 165.773 73.5654 167.213 73.2513 167.307ZM75.7016 167.025C75.5445 167.213 75.1675 167.244 74.979 167.025C74.7277 166.774 74.9791 166.524 75.1361 166.336C75.8586 165.554 76.5497 164.771 77.5864 164.333C77.5236 165.585 76.4869 166.242 75.733 167.025H75.7016ZM76.801 163.769C76.5811 163.957 76.3613 164.427 76.0157 164.083C75.7644 163.832 75.9215 163.456 76.0157 163.112C76.4555 161.954 77.555 161.453 78.4031 160.671C78.4345 160.639 78.5288 160.671 78.5916 160.639C78.8429 160.702 78.8429 160.89 78.8429 161.109C78.8429 161.672 78.5288 162.142 78.1518 162.517C77.712 162.956 77.2722 163.363 76.801 163.738V163.769ZM77.2722 159.951C77.4607 159.763 77.6806 159.669 77.9633 159.732C78.0576 160.013 77.8691 160.17 77.6806 160.326C77.5236 160.483 77.3351 160.545 77.178 160.42C76.9895 160.232 77.178 160.076 77.2722 159.951ZM79.1571 165.898C78.9372 166.117 78.5916 166.461 78.3089 166.055C78.1204 165.741 78.466 165.46 78.7173 165.272C79.6283 164.677 80.3822 163.801 81.5445 163.676C80.7277 164.427 79.9424 165.178 79.1256 165.898H79.1571ZM83.6492 162.549C83.4607 162.549 83.2408 162.486 83.2408 162.142C83.2408 161.829 83.9005 161.234 84.1832 161.359C84.2775 161.391 84.3717 161.578 84.3403 161.672C84.2147 162.048 84.1832 162.517 83.6492 162.549ZM84.8115 158.198C85.1571 158.605 85.3455 159.356 84.8115 159.638C82.8325 160.639 81.6387 162.611 79.6911 163.613C79.4712 163.738 79.2199 163.895 79 163.613C79.0314 163.488 79.0628 163.363 79.1256 163.237C79.2827 162.768 79.5969 162.424 79.9424 162.079C81.2932 160.921 82.6754 159.794 83.8063 158.448C84.0576 158.135 84.4974 157.791 84.8115 158.167V158.198ZM84.089 156.508C84.089 156.508 84.1832 157.008 84.089 157.071C82.8325 157.854 82.1728 159.231 81.0105 160.076C80.8534 160.17 80.6649 160.201 80.4764 160.232C80.445 160.232 80.3822 160.013 80.3194 159.888C80.3508 159.544 80.3508 159.199 80.6335 158.949C81.5445 158.104 82.4555 157.29 83.3979 156.476C83.5864 156.288 83.9319 156.226 84.089 156.539V156.508ZM82.3298 155.099C82.3298 155.099 82.5811 154.974 82.6754 154.942C82.8325 155.099 82.9267 155.287 82.801 155.475C82.5183 156.007 82.1728 156.539 81.6387 156.852C81.0419 157.227 80.3822 158.386 79.9424 157.885C79.4398 157.353 80.6335 156.914 81.0419 156.382C81.4188 155.913 81.89 155.506 82.2984 155.068L82.3298 155.099ZM80.6649 153.753C80.6649 153.753 81.0105 153.597 81.1361 153.534C81.5131 153.628 81.7016 153.847 81.6701 154.129C81.6701 154.316 81.5131 154.504 81.4188 154.661C80.0052 156.414 78.4031 157.947 76.4869 159.137C76.3298 159.231 76.0785 159.262 75.9215 159.199C75.5759 159.074 75.8272 158.824 75.9215 158.73C77.4921 157.04 79.0942 155.381 80.6963 153.722L80.6649 153.753ZM78.3717 152.376C78.8743 151.718 79.4084 151.687 79.8167 152.188C80.1623 152.626 79.9738 153.033 79.7225 153.315C77.9005 155.443 76.0471 157.54 74.1937 159.669C73.7539 160.17 73.0942 160.295 72.5288 160.42C71.178 160.702 69.8272 160.921 68.445 161.046C65.0838 161.297 61.6911 161.516 58.2984 161.484C56.5707 161.484 54.8743 161.171 53.178 160.984C50.0366 160.639 46.8953 160.232 43.7853 159.794C41.178 159.419 38.6963 158.667 36.4031 157.353C36.2147 157.259 35.9948 157.196 35.8377 157.071C32.8534 154.755 32.8534 154.786 35.3665 152.438C36.1204 151.75 36.8743 150.748 37.7539 150.56C38.5078 150.404 39.4817 151.218 40.2984 151.687C41.9319 152.626 43.8167 152.751 45.5759 153.283C46.5183 153.565 47.712 153.534 47.5236 155.099C47.5236 155.318 47.9319 155.443 48.089 155.099C48.2461 154.723 48.2775 154.191 48.7801 154.191C49.377 154.191 50.0052 154.316 50.6021 154.442C51.0419 154.536 50.9791 154.942 50.9162 155.287C50.7277 156.101 50.5078 156.883 50.3194 157.666C50.288 157.822 50.4136 158.041 50.445 158.229C50.6021 158.104 50.7906 157.979 50.8534 157.791C51.0733 157.227 51.2618 156.633 51.4188 156.038C51.7958 154.692 51.8272 154.661 53.2722 154.755C54.0262 154.817 54.7801 154.942 55.534 155.005C57.1989 155.13 57.1989 155.13 57.4188 156.852C57.5131 157.728 57.6387 158.605 58.0471 159.45C58.0471 158.448 58.0471 157.447 58.0471 156.445C58.0471 155.485 58.5393 154.974 59.5236 154.911C59.8063 154.911 60.089 154.911 60.3403 154.911C61.1256 154.817 61.4712 155.193 61.5654 155.944C61.6597 156.695 61.8167 157.415 62.0052 158.167C62.0366 158.354 62.2565 158.636 62.3508 158.605C62.5707 158.573 62.5078 158.323 62.5078 158.135C62.4136 157.384 62.3194 156.633 62.2251 155.882C62.1623 155.255 62.288 154.786 63.0733 154.817C63.356 154.817 63.6387 154.817 63.89 154.755C65.9319 154.473 65.8691 154.473 66.4031 156.414C66.5916 157.134 66.5916 157.979 67.377 158.448C67.534 157.728 67.0314 157.134 67.0314 156.476C67.0314 156.351 66.9686 156.195 66.9372 156.069C66.8429 155.537 66.466 154.88 67 154.536C67.534 154.223 68.288 154.066 68.9162 154.097C69.7016 154.097 70.2042 154.911 70.0157 155.725C69.89 156.163 69.6702 156.57 69.8272 157.04C69.8586 156.789 69.9843 156.57 70.267 156.57C70.4241 156.57 70.644 156.727 70.7382 156.883C70.8953 157.134 70.8639 157.415 70.7382 157.666C70.6126 157.916 70.3927 158.198 70.6754 158.386C70.7696 158.448 71.1466 158.198 71.3351 158.01C72.0262 157.353 72.6859 156.664 73.3455 155.975C73.534 155.788 73.7853 155.506 74.0366 155.662C74.3822 155.882 74.288 156.288 74.0995 156.57C73.5969 157.196 73 157.791 72.466 158.417C72.2461 158.667 71.8377 159.043 72.0262 159.231C72.3717 159.575 72.5602 159.043 72.7801 158.855C74.8848 156.977 76.5811 154.723 78.2775 152.47L78.3717 152.376ZM77.9948 137.914C77.9633 138.384 77.6178 138.54 77.2408 138.697C77.2408 138.227 77.4293 137.914 77.9633 137.914C77.9633 137.226 78.3717 136.944 78.9686 136.819C78.6859 137.195 78.7801 137.946 77.9948 137.914ZM75.0105 129.432C75.1361 129.213 75.356 129.213 75.5445 129.338C77.1466 130.183 78.1204 131.529 78.6544 133.251C78.7801 133.626 78.7801 134.064 78.8743 134.44C79.0419 135.254 78.6335 135.744 77.6492 135.911C77.6492 135.911 77.6492 136.068 77.6492 136.13C77.1466 137.007 76.7068 137.946 75.733 138.384C75.733 138.384 75.6387 138.259 75.6387 138.227C75.6702 136.913 76.7068 136.475 77.6178 135.88C77.7749 135.504 77.9005 135.097 78.1518 134.784C78.5916 134.158 78.7173 133.689 77.8377 133.407C77.7435 133.376 77.6492 133.219 77.6178 133.094C77.1571 132.009 76.3717 130.976 75.2618 129.995C75.2618 129.995 74.979 129.682 75.1047 129.494L75.0105 129.432ZM74.8534 139.448C73.7853 140.638 72.9372 142.14 71.1466 142.453C70.9581 142.453 70.7696 142.391 70.5811 142.328C70.5811 142.328 70.5811 142.046 70.644 141.984C71.8063 140.951 73 139.949 74.1623 138.947C74.2565 138.885 74.4136 138.885 74.5393 138.854C74.822 138.979 75.0419 139.229 74.8534 139.448ZM74.1937 137.789C74.1937 137.789 73.911 138.071 73.7539 138.196C73.5969 138.321 73.4084 138.415 73.2199 138.227C73.1256 138.134 73.1256 137.977 73.0628 137.758C73.1256 137.57 73.1885 137.288 73.3455 137.101C73.6283 136.756 73.9424 136.162 74.4764 136.569C75.0105 137.007 74.4764 137.414 74.1937 137.758V137.789ZM74.3194 134.534C74.3194 134.722 74.2565 134.972 74.1309 135.097C73.8482 135.41 73.5969 136.068 73.0628 135.629C72.6544 135.316 73.0628 134.91 73.3455 134.597C73.5026 134.377 73.6597 134.158 73.9738 134.127C74.2251 134.127 74.3194 134.283 74.288 134.503L74.3194 134.534ZM73.1256 128.117C73.534 128.023 73.7539 128.305 73.911 128.587C73.9424 128.649 73.8167 128.9 73.7539 128.931C73.377 129.025 73.0942 128.868 72.9686 128.493C73.0314 128.368 73.0628 128.148 73.1256 128.148V128.117ZM72.3403 132.969C72.466 132.562 72.7487 132.311 73.0314 132.186C73.4712 132.343 73.534 132.625 73.4712 132.875C73.377 133.344 73.1885 133.814 72.5602 133.657C72.3403 133.595 72.2147 133.282 72.3089 132.969H72.3403ZM72.3717 138.979C72.3717 139.605 71.3351 140.669 70.801 140.638C70.5497 140.638 70.5183 140.387 70.5183 140.199C70.5183 139.48 71.3979 138.54 72.0262 138.572C72.2461 138.572 72.3403 138.791 72.3717 139.01V138.979ZM71.8691 130.966C72.0262 130.966 72.1832 131.122 72.1518 131.341C72.1518 131.654 71.9319 131.811 71.6806 131.842C71.3979 131.842 71.178 131.685 71.2408 131.372C71.3037 131.091 71.5236 130.934 71.8691 130.966ZM71.0523 127.835C70.8639 128.211 70.6754 128.618 70.1728 128.524C69.6702 128.399 69.9843 127.961 69.9843 127.648C69.9843 127.366 70.0157 127.115 70.0471 126.834C70.0785 126.208 70.1099 125.613 70.1728 124.987C70.2042 124.486 70.5183 124.236 70.9895 124.236C71.5236 124.236 71.3979 124.705 71.3979 124.987C71.3979 125.926 71.555 126.896 71.0838 127.804L71.0523 127.835ZM69.8272 120.511C69.8272 120.511 70.1099 120.73 70.1099 120.761C69.9843 121.168 69.7016 121.481 69.2932 121.544C69.0733 121.544 69.0105 121.325 69.0105 121.074C69.1047 120.636 69.356 120.386 69.8586 120.511H69.8272ZM70.644 122.232C70.8325 122.139 70.9895 121.669 71.2408 122.045C71.3979 122.264 71.1152 122.514 70.9267 122.702C69.8272 123.829 68.3822 124.267 66.9372 124.611C63.5759 125.425 60.1204 125.206 56.6963 125.112C55.9424 125.112 55.2199 124.893 54.466 124.768C54.2775 124.737 53.9319 124.768 53.9633 124.549C53.9948 124.236 54.3717 124.298 54.5916 124.298C55.6911 124.298 56.7906 124.298 58.0785 124.298C60.8429 124.956 63.7016 123.86 66.6544 123.923C68.1309 123.923 69.3246 122.952 70.5811 122.264L70.644 122.232ZM67.7225 116.849C67.1256 117.6 66.5602 118.382 66.089 119.227C65.8377 119.666 65.6178 119.979 65.0838 119.979C67.0942 115.753 69.9529 112.091 72.9372 108.522C74.6963 106.425 76.0471 104.046 77.712 101.886C79.7853 99.2571 81.6702 96.44 83.6178 93.7168C83.7749 93.4977 83.9005 93.1846 84.2147 93.4664C84.3089 93.5603 84.2461 93.8733 84.1832 93.9985C83.3665 95.3445 82.5497 96.6904 81.7016 98.0051C77.4921 104.61 72.6544 110.745 67.7225 116.817V116.849ZM82.1414 109.931C80.2565 109.806 78.3089 110.119 76.3927 110.213C75.9843 110.213 75.4817 110.4 75.356 109.868C75.1989 109.274 75.7016 109.023 76.1728 108.929C76.644 108.835 77.1152 108.804 77.5864 108.741C81.1989 108.272 84.8429 108.335 88.3927 107.489C90.3717 107.02 92.3194 106.456 94.0785 105.392C94.4241 105.392 94.7696 105.392 94.9267 104.985C95.3037 104.985 95.6806 104.985 96.0576 104.985C91.7853 107.709 87.5131 110.307 82.1099 109.931H82.1414ZM127.094 46.7645C125.461 51.9293 123.827 57.0627 122.194 62.1962C121.44 64.5438 120.654 66.8914 119.806 69.1764C117.921 74.1846 115.628 79.0051 112.613 83.4499C111.482 85.1089 110.571 86.8304 110.037 88.7711C109.503 90.7744 108.497 92.5273 107.052 94.0924C104.351 97.0034 102.058 100.259 98.8534 102.7C98.0995 103.264 97.2827 103.796 96.4974 104.328C95.7435 103.639 95.3037 104.265 94.8639 104.735C94.4869 104.735 94.1728 104.797 94.0157 105.173C92.6335 105.079 91.377 105.705 90.089 106.05C86.1309 107.114 82.0785 107.176 78.0576 107.552C77.8063 107.552 77.4607 107.615 77.3351 107.333C77.1152 106.895 77.555 106.769 77.7749 106.55C78.2147 106.05 78.8743 105.956 79.4712 105.862C85.2199 104.985 90.623 102.919 96.0576 101.041C96.2461 100.979 96.4345 100.916 96.623 100.885C96.2147 100.634 95.7749 100.634 95.3037 100.76C93.4503 101.323 91.5968 101.824 89.7749 102.419C86.8848 103.389 83.9319 103.952 80.979 104.672C80.5707 104.766 80.1623 104.766 79.7539 104.797C79.2827 104.797 79.1571 104.547 79.377 104.171C80.0681 102.919 80.7277 101.699 82.5183 101.636C86.979 101.48 91.1256 99.8832 95.3037 98.5685C96.2147 98.2868 97.1256 97.9425 98.0366 97.6295C98.3822 97.5042 98.822 97.4103 98.7906 96.9095C95.3979 97.9738 91.9738 98.9441 88.5497 99.8206C86.8848 100.259 85.1885 100.478 83.4607 100.666C83.0524 100.697 82.5183 100.854 82.2984 100.54C81.9843 100.102 82.4241 99.6328 82.644 99.2258C82.8325 98.8815 83.1466 98.5685 83.3037 98.1929C83.7749 97.1912 84.5288 97.0973 85.5654 97.0034C88.7068 96.6904 91.7853 96.1583 94.8639 95.4384C96.5288 95.0314 98.1623 94.5306 99.8272 94.0611C100.393 93.9046 101.052 93.7794 101.115 92.9968C99.4188 93.7481 97.5968 93.9985 95.8063 94.4054C92.6649 95.094 89.4921 95.6888 86.288 95.9079C85.9738 95.9079 85.5654 96.127 85.3455 95.7827C85.1256 95.4384 85.5026 95.1879 85.6283 94.8749C86.1623 93.7168 87.0419 93.1846 88.267 92.9029C92.0052 92.0578 95.6178 90.7118 99.2618 89.5537C100.173 89.272 101.115 89.0528 102.026 88.7711C102.623 88.5833 103.408 88.552 103.597 87.7382C98.7592 89.0842 93.89 90.4301 89.0523 91.7761C88.7382 91.87 88.3613 92.0578 88.1414 91.6822C87.9843 91.4318 88.267 91.1814 88.3927 90.9309C89.0209 89.7102 89.9005 88.9589 91.3455 88.7085C93.9529 88.239 96.5602 87.6443 99.1361 87.0496C99.7644 86.9243 100.487 86.8617 100.77 86.1105C97.6911 86.6739 94.6126 87.2061 91.534 87.7695C91.3455 87.8008 91.0628 87.7695 90.9686 87.6756C90.7801 87.4565 90.9686 87.1748 91.0942 86.9557C92.1623 85.3593 93.1047 83.7003 94.2984 82.1978C95.8377 80.2571 96.9058 78.0347 98.1937 75.9375C100.11 72.8387 101.398 69.4581 103.094 66.2341C103.974 64.5438 104.979 62.9161 106.079 61.3197C106.55 60.6311 107.147 60.1303 107.995 59.8486C109.251 59.4729 110.288 58.6591 111.387 57.9705C114.529 55.9985 117.387 53.6509 120.372 51.4598C120.56 51.3346 120.654 51.0528 120.78 50.865C120.058 50.865 119.555 51.3033 119.021 51.7102C116.162 53.8387 113.272 55.9359 110.225 57.814C109.534 58.2522 108.592 59.066 108.058 58.5965C107.429 58.0018 108.497 57.2505 108.843 56.5932C109.377 55.5603 110.068 54.6212 110.696 53.6509C111.01 53.1813 111.482 52.9309 111.953 52.6179C117.827 48.7052 123.733 44.8239 128.791 39.8156C129.199 39.4087 129.544 38.7827 130.298 39.127C128.696 41.4433 127.88 44.1352 127.031 46.7958L127.094 46.7645ZM132.089 33.4927C131.586 35.183 131.398 36.9672 130.361 38.501C130.267 38.6262 130.361 38.8766 130.361 39.0644C129.859 38.5323 129.325 38.5323 128.791 39.0331C127.974 39.753 127.188 40.5042 126.372 41.2555C122.571 44.7299 118.236 47.5158 113.995 50.4581C113.838 50.5833 113.649 50.6772 113.461 50.7711C113.366 50.8024 113.209 50.7711 113.084 50.7711C112.927 50.7085 112.927 50.5833 113.021 50.4268C114.026 48.4861 114.969 46.5141 116.791 45.1369C119.712 42.9771 122.539 40.7234 125.398 38.4697C127.503 36.8107 129.45 34.9639 131.335 33.0858C131.524 32.898 131.712 32.5537 131.995 32.6789C132.435 32.8667 132.152 33.2736 132.089 33.5553V33.4927ZM133.22 29.2357C133.031 30.1122 132.592 30.8634 131.963 31.552C128.131 35.6838 123.702 39.1583 119.084 42.3823C119.021 42.4136 118.958 42.4449 118.895 42.4762C118.298 42.9145 117.67 43.3527 117.073 43.7596C116.979 42.8206 117.607 42.1632 117.984 41.412C118.738 39.8156 120.215 38.8453 121.534 37.7497C125.492 34.4631 129.45 31.1764 132.654 27.1072C132.937 26.7316 133.094 26.0743 133.785 26.2308C133.597 27.2324 133.44 28.2341 133.22 29.2357ZM134.445 23.9145C130.675 28.9227 126.215 33.2423 121.251 37.0611C121.094 37.1863 120.937 37.3115 120.749 37.4054C120.654 37.468 120.497 37.468 120.372 37.4054C120.215 37.3428 120.215 37.2176 120.277 37.0611C120.843 35.809 121.408 34.557 122.414 33.6179C126.152 30.2061 129.921 26.8255 133.691 23.4136C133.942 23.1945 134.131 22.8502 134.508 22.8502C134.571 22.9441 134.696 23.038 134.696 23.1319C134.633 23.3823 134.571 23.6953 134.414 23.9145H134.445ZM136.581 13.9919C136.487 14.7118 135.953 15.1813 135.482 15.6822C132.937 18.468 130.424 21.2851 127.942 24.1023C127.534 24.5405 126.812 25.323 127.188 25.6047C127.848 26.043 127.911 24.9787 128.257 24.6031C128.885 23.9771 129.45 23.2884 130.047 22.6311C131.775 20.6904 133.503 18.7184 135.199 16.7777C135.387 16.5899 135.513 16.2456 135.827 16.3708C136.173 16.496 135.984 16.809 135.921 17.0594C135.796 17.5916 135.545 18.1237 135.576 18.6558C135.702 20.9095 134.319 22.2868 132.812 23.6014C129.953 26.0743 127.094 28.5158 124.236 30.9886C124.079 31.1451 123.859 31.4581 123.607 31.1764C123.544 31.0825 123.607 30.8008 123.702 30.613C124.581 28.8914 125.461 27.2011 126.34 25.4795C126.497 25.1665 126.654 24.8535 126.843 24.5718C127.942 23.038 127.911 20.9721 129.545 19.6262C131.021 18.4367 132.152 16.809 133.346 15.3379C134.005 14.5553 134.508 13.6476 135.105 12.8024C135.45 12.3016 135.482 11.8008 135.105 11.3C134.257 13.3033 133.283 15.15 131.272 16.2456C131.115 17.0594 130.801 17.7168 129.764 17.5603C129.764 17.5916 129.764 17.5916 129.764 17.6229C130.141 17.0594 130.173 16.1204 131.209 16.1517C131.838 14.6805 133.157 13.7728 133.942 12.4268C134.885 10.8304 136.204 9.42187 136.644 7.54378C137.084 7.54378 137.398 7.73159 137.335 8.26372C137.084 10.1731 136.832 12.0512 136.581 13.9606V13.9919ZM136.581 7.57509C135.105 9.57838 133.66 11.613 132.183 13.6163C132.026 13.8354 131.806 14.1484 131.555 14.0232C131.272 13.8667 131.618 13.5537 131.555 13.3033C131.555 13.1781 131.555 12.9902 131.461 12.9589C131.178 12.8337 131.115 13.0841 131.052 13.272C130.518 14.4614 130.016 15.6509 129.482 16.8403C128.414 19.2192 127.094 21.4416 125.681 23.6327C125.492 23.9458 125.335 24.5405 124.801 24.2588C124.518 24.1023 124.55 23.664 124.581 23.3197C124.801 21.5668 125.021 19.7827 125.209 18.0298C125.241 17.6855 125.492 17.1533 124.738 17.2472C124.455 16.9029 124.487 16.496 124.707 16.1517C124.958 15.7448 125.241 15.3379 125.492 14.9622C125.932 14.3362 125.806 13.3033 126.78 13.0215C127.063 13.7728 126.686 14.4927 126.78 15.2439C126.874 16.3082 126.435 17.4351 126.937 18.468C127.377 17.4351 127.283 16.3395 127.408 15.2753C127.408 15.2126 127.408 15.15 127.408 15.0561C127.346 11.4878 128.853 8.67064 131.398 6.19782C132.654 4.97706 133.66 3.44329 134.916 2.22253C135.953 1.22088 136.047 1.34609 136.675 2.69205C137.178 3.81891 136.958 4.66405 136.079 5.41528C135.199 6.19782 134.571 7.19947 133.88 8.13851C133.723 8.35762 133.628 8.73324 133.817 8.88975C134.068 9.10886 134.225 8.73324 134.382 8.57673C135.136 7.60639 135.89 6.63604 136.644 5.697C136.738 5.57179 136.99 5.57179 137.178 5.54049C137.209 5.7283 137.272 5.91611 137.304 6.13522C137.429 6.82385 136.298 6.88645 136.518 7.63769L136.581 7.57509Z" fill="#2A2C35"/>
<path d="M103.188 68.8947C103 68.9573 102.812 68.9886 102.749 69.3016C102.78 69.6146 103.063 69.6459 103.346 69.6146C104.382 69.5207 105.356 69.1451 106.267 68.7069C110.414 66.7036 114.466 64.6064 118.33 62.071C119.147 61.5388 120.058 61.1632 120.592 60.2868C119.743 60.725 118.895 61.1319 118.079 61.6014C113.272 64.356 108.592 67.3922 103.188 68.8634V68.8947Z" fill="#2A2C35"/>
<path d="M119.052 65.1385C118.864 65.2011 118.675 65.2324 118.487 65.295C114.34 67.0479 110.319 69.1138 106.079 70.7102C105.796 70.8041 105.293 70.9606 105.419 71.2736C105.544 71.5553 106.047 71.4301 106.361 71.3362C106.738 71.211 107.115 71.0232 107.492 70.8667C110.099 69.7085 112.738 68.5191 115.346 67.3609C116.539 66.8288 117.733 66.2967 118.895 65.7332C119.084 65.6393 119.272 65.5454 119.209 65.295C119.209 65.2324 119.115 65.2011 119.021 65.1385H119.052Z" fill="#2A2C35"/>
<path d="M115.314 72.4944C113.492 73.5586 111.544 74.4037 109.66 75.3428C109.503 75.4054 109.283 75.6871 109.314 75.781C109.44 76.0627 109.754 76.0314 110.005 75.9688C110.257 75.9062 110.508 75.781 110.728 75.6245C112.832 74.3724 115 73.2456 117.262 72.3379C116.602 72.2126 115.848 72.2126 115.314 72.5257V72.4944Z" fill="#2A2C35"/>
<path d="M116.005 69.5207C113.869 70.4598 111.702 71.3049 109.88 72.8074C109.817 72.87 109.817 72.9952 109.817 73.1204C112.11 72.4318 113.932 70.7415 116.257 70.1467C116.476 70.0841 116.602 69.9276 116.508 69.7085C116.414 69.4894 116.162 69.4268 115.974 69.5207H116.005Z" fill="#2A2C35"/>
<path d="M109.754 79.099C109.754 79.099 109.408 79.3807 109.628 79.5372C109.754 79.6311 110.037 79.6624 110.194 79.5685C111.513 78.8486 112.801 78.0973 114.089 77.3461C114.183 77.2835 114.246 77.0957 114.215 77.0018C114.215 76.9079 113.995 76.9079 113.775 76.814C112.487 77.5339 111.136 78.3164 109.785 79.099H109.754Z" fill="#2A2C35"/>
<path d="M120.937 50.7398C122.853 50.1451 123.953 48.3922 125.492 47.2654C125.555 47.2028 125.555 47.0462 125.586 46.921C125.461 46.921 125.272 46.7958 125.241 46.8584C123.89 48.2357 122.099 49.1121 120.969 50.7085L120.937 50.7398Z" fill="#2A2C35"/>
<path d="M108.058 73.5273C107.838 73.5899 107.712 73.7777 107.775 73.9655C107.838 74.2159 108.089 74.1846 108.277 74.122C108.874 73.9968 109.314 73.5586 109.754 73.1517C109.126 72.9326 108.623 73.3082 108.089 73.5273H108.058Z" fill="#2A2C35"/>
<path d="M45.7644 130.778C43.7853 132.593 42.5602 134.816 42.2775 137.476C42.2775 137.601 42.2461 137.758 42.2775 137.883C42.3089 138.134 42.4031 138.384 42.466 138.634C42.7801 138.54 42.8115 138.259 42.8429 137.977C43.377 135.473 44.2251 133.125 46.2042 131.372C46.3927 131.185 46.644 130.966 46.4555 130.684C46.2356 130.339 45.9529 130.559 45.7644 130.746V130.778Z" fill="#2A2C35"/>
<path d="M48.4974 132.562C48.2461 132.499 48.1518 132.687 48.0576 132.875C47.3351 134.565 46.801 136.349 46.3927 138.134C46.5812 138.447 46.2356 138.947 46.7382 138.979C47.178 139.01 47.2094 138.54 47.2094 138.227C47.2722 136.756 48.0576 135.504 48.466 134.127C48.5602 133.814 48.7801 133.501 48.8429 133.188C48.9058 132.938 48.8429 132.625 48.466 132.562H48.4974Z" fill="#2A2C35"/>
<path d="M50.6021 135.379C49.911 135.191 50.0681 135.942 49.9738 136.349C49.8796 136.725 49.8482 137.132 49.8168 137.226C49.7853 137.789 49.7539 138.196 49.9738 138.259C50.3508 138.321 50.5079 137.977 50.5393 137.601C50.5707 137.288 50.7277 136.975 50.7906 136.631C50.8534 136.193 51.1675 135.536 50.6021 135.41V135.379Z" fill="#2A2C35"/>
<path d="M89.8377 68.4878C89.8377 68.2374 89.8691 67.9556 89.5864 67.7991C89.555 68.0495 89.4607 68.3313 89.4607 68.5817C89.4607 69.9589 89.4607 71.3049 89.4607 72.6822C89.4921 72.6822 89.555 72.6822 89.5864 72.6822C89.5864 74.0594 89.5235 75.4054 89.5864 76.7514C89.6492 77.6904 89.8377 78.6294 89.9948 79.5685C89.9948 79.725 90.2146 79.9754 90.3403 80.0067C90.8115 80.0693 90.6544 79.6624 90.623 79.4746C90.2461 75.8123 89.9005 72.15 89.8063 68.4878H89.8377Z" fill="#2A2C35"/>
<path d="M79.2827 85.2654C79.2827 85.2654 79.1885 85.4845 79.1571 85.6097C78.9686 88.552 79.6597 91.463 79.5969 94.4054C79.5969 94.5306 79.6283 94.6871 79.7225 94.781C79.7853 94.8749 79.9424 94.9375 80.0681 94.9375C80.1937 94.9375 80.3822 94.8749 80.3822 94.781C80.445 94.5932 80.445 94.3741 80.3822 94.1863C79.911 91.2126 79.9424 88.2077 79.2513 85.2654H79.2827Z" fill="#2A2C35"/>
<path d="M80.4764 83.8568C80.4136 84.2011 80.288 84.3889 80.3194 84.5767C80.4764 86.5487 80.6335 88.5207 80.8534 90.4927C80.8848 90.8996 81.1047 91.2753 81.2932 91.6509C81.356 91.8074 81.6073 91.8387 81.7958 91.9326C81.8272 91.7448 81.9529 91.5257 81.89 91.3692C81.356 89.0842 81.0105 86.7991 80.7277 84.4828C80.7277 84.3263 80.6021 84.1385 80.4764 83.8568Z" fill="#2A2C35"/>
<path d="M92.3508 70.1154C92.288 69.1451 92.5707 68.1435 92.0995 67.2044C92.0052 68.2061 91.9424 69.239 91.8482 70.2407C91.8482 70.3033 91.8482 70.3659 91.8482 70.4598H91.9738C91.9738 71.2736 91.9424 72.0874 91.9738 72.9013C92.0367 73.6525 92.1623 74.4037 92.3194 75.1237C92.3822 75.4367 92.6335 75.8749 92.9791 75.781C93.4503 75.6558 93.1675 75.2176 93.1047 74.9359C92.6649 73.3395 92.4136 71.7431 92.3194 70.1154H92.3508Z" fill="#2A2C35"/>
<path d="M83.0209 84.7332C82.7696 84.6706 83.0209 85.6723 82.801 86.3609C82.8953 87.0495 82.9895 87.926 83.1152 88.8024C83.1152 88.9902 83.2408 89.2093 83.5236 89.178C83.7434 89.1467 83.8377 88.9902 83.8063 88.7398C83.712 87.926 83.6178 87.1121 83.555 86.2983C83.4921 85.7036 83.7749 84.8897 83.0209 84.7645V84.7332Z" fill="#2A2C35"/>
<path d="M118.895 27.8897C118.613 27.7958 118.393 27.9836 118.298 28.2654C118.298 28.328 118.236 28.3906 118.236 28.4532C118.047 30.926 117.482 33.3988 118.236 35.8716C118.644 33.3988 118.581 30.8634 119.084 28.4219C119.115 28.2654 119.021 27.9523 118.927 27.8897H118.895Z" fill="#2A2C35"/>
<path d="M122.068 22.725C121.974 22.9128 121.848 23.0693 121.817 23.2884C121.597 25.3856 121.283 27.4515 121.974 29.5174C122.351 27.3263 121.911 25.0413 122.728 22.9128C122.759 22.8189 122.665 22.6311 122.571 22.5685C122.382 22.4746 122.162 22.5059 122.068 22.725Z" fill="#2A2C35"/>
</g>
</g>
<defs>
<clipPath id="clip0_96_17351">
<rect width="170" height="170" fill="white"/>
</clipPath>
<clipPath id="clip1_96_17351">
<rect width="108" height="171" fill="white" transform="translate(31 0.00012207)"/>
</clipPath>
</defs>
</svg>
