<svg width="170" height="170" viewBox="0 0 170 170" fill="none" xmlns="http://www.w3.org/2000/svg">
<g clip-path="url(#clip0_96_17466)">
<g clip-path="url(#clip1_96_17466)">
<path d="M162.174 144.407C160.468 142.76 158.732 141.142 156.967 139.553C153.084 136.082 148.466 133.552 144.73 129.904C142.612 127.816 139.935 126.551 137.434 124.992C132.463 121.903 128.139 117.785 122.49 115.843C122.343 115.784 122.196 115.696 122.049 115.608C119.99 113.99 117.637 112.813 115.43 111.401C114.136 110.578 112.901 109.813 111.4 109.548C113.312 106.224 114.519 102.635 115.313 98.8697C115.636 97.2223 115.901 95.4867 117.107 94.163C117.343 93.8982 117.49 93.5746 117.284 93.2805C116.754 92.5745 117.166 91.8391 117.284 91.1625C117.696 88.8385 118.284 86.5734 118.607 84.2495C119.637 76.4835 121.785 68.8939 121.52 60.9808C121.431 58.1273 121.52 55.1856 120.137 52.6264C118.696 50.0083 119.108 47.4196 119.872 44.8015C120.137 43.919 120.314 43.0659 120.284 42.1834C120.137 37.4767 119.961 32.7406 119.725 28.0339C119.608 25.8276 119.019 23.7096 118.137 21.6504C116.372 17.6203 113.371 14.4727 110.694 11.0604C110.459 10.7662 110.077 10.5309 109.724 10.3249C107.429 9.06002 105.34 7.53034 103.193 6.0595C100.634 4.29449 97.9863 2.85306 94.9857 1.82347C90.279 0.205548 85.3959 1.08805 80.7186 -0.000370342C80.4832 -0.059204 80.2479 0.0584634 79.9831 0.0878802C75.4824 0.264381 71.1287 1.3528 66.6867 2.08823C61.3917 2.94131 56.8027 5.76533 51.8901 7.73626C48.1541 9.23652 44.6829 11.2075 41.8295 14.0903C38.7701 17.1791 35.799 20.2678 34.387 24.5333C33.0339 28.6811 32.3573 32.9171 32.5632 37.2708C32.7691 41.6833 33.1515 46.0664 32.9456 50.5084C32.8868 51.8321 33.0044 53.1559 33.5928 54.3326C34.034 55.2151 34.0046 56.0093 33.5928 56.8918C33.1221 57.8626 32.8279 58.9216 33.0633 59.9806C33.6516 62.8634 34.1517 65.7463 35.5637 68.3938C36.9463 70.9825 38.5348 73.5124 39.5938 76.2187C40.1821 77.7484 41.0941 78.8662 42.0648 80.0429C42.6826 80.7783 43.4474 81.1019 44.4182 81.1019C46.595 81.1019 46.6539 81.1901 46.8892 83.2787C46.948 83.7788 46.9774 84.2495 47.0069 84.7496C47.4481 90.1329 46.948 95.5456 47.1539 100.929C47.301 104.812 46.6539 108.577 45.8302 112.343C45.7125 112.902 45.7419 113.608 45.2124 113.872C43.5945 114.608 42.4767 116.196 40.6528 116.52C37.7111 117.049 35.2107 118.667 32.5926 119.962C25.4149 123.492 18.8843 128.139 12.2067 132.552C10.324 133.787 8.58845 135.317 7.11761 137.112C6.99994 137.259 6.97052 137.582 7.02936 137.759C7.17644 138.141 7.44119 137.847 7.58828 137.759C8.17661 137.318 8.70612 136.817 9.29445 136.376C11.383 134.876 13.4716 133.699 16.178 134.935C17.1782 135.405 18.3843 135.523 19.5021 135.729C22.3261 136.258 25.0619 137.023 27.7977 137.847C29.1508 138.229 30.2393 139.259 31.8572 139.171C33.5634 139.083 33.7104 139.377 34.0634 141.112C34.8577 145.201 35.2401 149.349 35.7696 153.467C35.8873 154.262 35.6225 155.115 35.9755 155.88C36.5345 157.056 37.6229 155.968 38.3877 156.409C40.947 157.85 43.8593 158.527 46.3597 160.145C48.566 161.557 50.7428 162.998 52.9491 164.41C54.2434 165.264 55.6848 165.881 56.8615 166.911C57.4793 167.44 57.9793 167.852 57.2733 168.676C57.0086 168.999 56.8615 169.411 57.2439 169.764C57.5969 170.088 58.0088 169.911 58.3912 169.764C58.8913 169.588 59.156 169.147 59.4502 168.764C61.0681 166.705 62.892 164.822 64.7746 163.028C67.2751 160.645 70.0991 158.704 73.129 157.086C73.8644 156.703 73.9821 157.144 73.8644 157.733C73.5409 159.262 73.7762 160.763 74.0409 162.263C74.0704 162.528 74.1292 162.734 74.3939 162.822C74.6881 162.91 74.8646 162.734 74.9529 162.498C75.1294 161.792 75.4824 161.145 75.5118 160.38C75.6295 158.498 76.5708 156.791 76.7179 154.909C76.7179 154.615 77.012 154.291 77.3651 154.291C77.8651 154.291 77.8063 154.703 77.7769 154.997C77.7769 157.203 77.6886 159.41 77.6886 161.586C77.6886 162.057 77.9828 162.351 78.4829 162.292C78.8947 162.234 79.0124 161.91 78.9241 161.557C78.4829 159.351 78.8653 157.144 78.8947 154.968C78.8947 154.409 78.983 153.82 79.1301 153.291C79.2477 152.879 79.6007 152.585 80.042 152.614C80.6303 152.644 80.5421 153.203 80.5421 153.556C80.4244 156.262 80.4244 158.939 80.6303 161.645C80.7186 162.822 80.1597 163.146 79.1595 163.469C74.6587 164.911 70.1579 166.381 65.716 167.97C64.9511 168.235 63.8921 168.176 63.4509 169.147C64.4511 170.147 65.3924 169.294 66.2749 168.941C70.3933 167.382 74.541 165.881 78.7771 164.675C83.1602 163.44 87.6904 162.587 91.9264 160.851C93.0736 160.38 93.6032 162.498 93.8973 161.41C94.1915 160.292 94.6033 159.91 95.4858 159.704C100.163 158.645 104.723 156.997 109.459 156.144C110.636 155.938 111.106 155.556 110.9 154.35C110.43 151.555 110.753 148.643 109.429 145.966C108.723 144.583 108.841 144.407 110.341 143.877C112.724 143.024 115.019 142.024 117.401 141.171C123.226 139.083 128.845 136.406 134.787 134.552C136.875 133.905 138.964 133.14 141.082 132.581C142.288 132.258 143.553 131.875 144.818 132.758C146.936 134.258 149.23 135.582 151.29 137.141C155.231 140.142 159.262 143.054 162.203 147.143C162.35 147.349 162.527 147.525 162.792 147.437C163.145 147.349 163.321 147.025 163.321 146.701C163.321 145.731 162.762 144.995 162.115 144.348L162.174 144.407ZM117.607 24.5627C117.754 24.7686 117.96 24.9451 118.019 25.151C118.284 26.7395 118.519 28.3281 118.784 30.1225C118.755 30.2402 118.666 30.5343 118.578 30.8285C118.402 30.5637 118.137 30.299 118.107 30.0048C117.872 28.3281 117.666 26.6513 117.46 24.9745C117.46 24.8275 117.578 24.6804 117.637 24.5333L117.607 24.5627ZM113.901 53.8031C113.96 52.8029 114.166 52.7735 114.872 52.8617C115.195 52.8911 115.578 52.9794 115.783 52.6852C116.225 52.0969 116.548 52.3616 116.931 52.7441C119.255 55.2151 119.078 58.6863 116.342 60.5395C114.607 61.7162 112.636 62.6281 110.459 62.834C107.782 63.0988 106.164 61.7162 106.105 59.0098C106.105 58.598 106.105 58.1862 106.105 57.7743H106.076C106.076 57.1272 106.076 56.48 106.076 55.8034C106.076 54.9209 106.517 54.2443 107.047 53.6266C107.723 52.8911 108.4 53.0088 108.87 53.9796C109.165 54.5679 109.371 55.1857 110.018 55.5092C111.371 56.1858 113.813 55.2739 113.901 53.7442V53.8031ZM111.342 52.6264C111.489 52.3322 111.753 52.1557 112.106 52.1851C112.342 52.3322 112.401 52.5381 112.253 52.7441C112.077 52.9794 111.959 53.3324 111.547 53.1853C111.283 53.0971 111.253 52.8323 111.371 52.6264H111.342ZM114.577 19.8854C114.577 19.8854 114.901 20.0031 114.96 20.0913C115.107 20.4738 115.195 20.8562 115.313 21.268C115.254 21.4151 115.225 21.5622 115.166 21.7093C115.048 21.621 114.872 21.5916 114.783 21.4739C114.577 21.1209 114.371 20.7679 114.254 20.4149C114.166 20.1796 114.313 19.9443 114.577 19.9148V19.8854ZM80.5421 4.11799C80.8068 4.02974 81.1892 3.7944 81.2775 4.29449C81.3363 4.58866 81.0127 4.64749 80.8068 4.76516C78.5417 6.32425 75.9825 7.50093 73.8939 9.35419C73.0408 10.119 71.8935 10.0308 70.9522 10.4426C70.9522 10.4426 70.9522 10.4426 70.9522 10.3838C70.9522 10.3838 70.9816 10.3838 71.011 10.3544C71.0404 10.119 71.011 9.76603 71.1287 9.67778C74.0115 7.41268 77.0415 5.3535 80.5421 4.11799ZM63.4509 14.2374C61.4799 15.7671 59.1854 16.8555 57.5969 18.8853C57.4793 19.0323 57.1557 19.0618 56.9498 19.1206C52.3901 20.3267 48.5365 22.9448 44.477 25.1805C43.2709 25.8276 41.9472 26.3571 40.947 27.3279C40.7705 27.5044 40.5057 27.5926 40.3292 27.3279C40.1527 27.0926 40.2998 26.8572 40.5057 26.7101C41.7412 25.7982 43.0062 24.8863 44.2417 23.9744C44.8594 23.5037 45.6831 23.2978 46.0655 22.5329C47.9482 21.4739 49.8603 20.3855 51.7724 19.3265C52.3313 19.0029 52.8608 18.5617 53.5374 19.0912C53.9786 19.4442 54.2728 19.0618 54.567 18.7676C55.6554 17.7086 57.0086 16.9437 58.1853 16.0024C62.6272 12.5606 67.4516 9.64836 72.2759 6.76551C72.5407 6.58901 72.8643 6.50075 73.1879 6.38309C73.3644 6.29484 73.5409 6.35367 73.5997 6.53017C73.6291 6.67726 73.5997 6.85376 73.5409 6.97142C73.3938 7.17734 73.2173 7.35384 73.0114 7.47151C69.6284 9.41302 66.5396 11.8252 63.4509 14.208V14.2374ZM69.0695 13.0901C67.7752 14.2668 66.5396 15.4435 64.6864 15.9436C62.7449 16.4437 61.0387 17.6792 59.3913 18.8558C59.2149 19.0029 58.9207 19.0029 58.7148 18.797C58.6853 18.7676 58.7148 18.6793 58.7148 18.6205C58.803 18.5028 58.8913 18.3557 59.0089 18.2381C62.0095 16.0024 65.2747 14.1786 68.54 12.3253C68.8047 12.1782 69.2166 12.0017 69.4519 12.3253C69.6284 12.59 69.3343 12.8842 69.0989 13.0901H69.0695ZM40.3587 53.4206C40.6822 53.4795 40.7411 53.2147 40.7999 52.9794C41.5942 49.8024 43.6239 47.2725 45.4478 44.7132C47.301 42.1246 48.8601 39.33 50.8605 36.8589C51.0664 36.5942 51.2135 36.3 51.4782 36.0941C51.9195 35.7999 51.8901 34.8586 52.6843 35.0939C53.2138 35.241 53.1844 37.006 52.5666 37.4767C49.4485 39.7418 48.2424 43.3307 46.3303 46.4194C44.7418 48.9787 43.0944 51.538 42.1531 54.4208C41.8883 55.2445 41.4177 55.2739 40.6528 54.8621C39.4467 54.2149 38.2406 53.6266 36.7404 54.1266C35.9461 54.3914 35.799 53.5383 35.9461 53.0088C36.2991 51.685 36.5933 50.2436 37.3287 49.0964C37.9171 48.1256 38.3583 47.1254 38.8584 46.1253C41.3294 41.5068 44.4476 37.3296 47.6246 33.1818C47.9188 32.8288 48.3306 32.5347 48.6836 32.2405C48.8895 33.123 48.3012 33.6819 47.8599 34.2997C46.0949 36.7119 44.2711 39.124 42.8591 41.7716C42.0354 43.3012 40.6528 44.5073 40.3881 46.3312C41.7412 46.0076 42.0648 44.7132 42.6826 43.7719C44.83 40.5066 46.8598 37.1825 49.7426 34.4762C50.0956 34.1232 50.478 33.7702 50.478 33.2701C50.478 32.2405 51.2135 31.6816 51.8018 31.0344C52.1254 30.6814 52.4784 30.3284 52.7726 29.946C53.0079 29.6812 53.0961 29.3871 52.7726 29.1223C52.4784 28.887 52.1548 28.8576 51.8901 29.0929C51.5076 29.3871 51.1546 29.7401 50.8605 30.1225C50.5075 30.5343 50.4192 31.1815 49.7132 31.1521C49.5661 30.5932 49.066 30.1519 49.8015 29.5047C50.9487 28.4751 51.8606 27.2102 52.8902 26.0335C53.0961 25.7688 53.2432 25.4452 53.0079 25.151C52.7137 24.798 52.4196 25.151 52.1842 25.2981C50.4192 26.5925 49.4779 28.534 48.2129 30.2402C44.8594 34.6527 41.8883 39.33 39.0643 44.0955C38.9466 44.3014 38.7996 44.5367 38.6231 44.6544C38.4466 44.7721 38.1524 44.8603 37.9465 44.8015C37.6817 44.7427 37.6817 44.4485 37.7405 44.2132C38.2995 41.9481 39.4173 39.9771 40.6822 38.065C42.359 35.5646 43.771 32.8583 46.0655 30.7991C46.242 30.652 46.4479 30.4461 46.5362 30.2402C48.007 26.2395 51.2429 23.7684 54.3905 21.2092C54.7435 20.915 55.2436 20.7091 55.6848 20.562C56.2143 20.3855 56.9792 20.1208 57.3028 20.562C57.744 21.1503 56.9792 21.4739 56.5968 21.8564C55.2142 23.2684 55.0082 25.2099 54.3611 26.9455C53.8022 28.3869 53.4197 29.8872 53.3021 31.4757C53.2138 32.5641 53.2138 33.8584 51.5371 33.829C51.3311 33.829 51.037 34.2408 50.8899 34.5056C47.5658 39.9183 43.9769 45.1839 40.8293 50.7143C40.4763 51.332 40.241 52.038 40.0056 52.7441C39.888 53.0676 40.0645 53.3912 40.4469 53.4501L40.3587 53.4206ZM38.5348 26.9749C38.6819 25.6511 39.7997 25.0628 40.6234 24.2685C43.065 21.9446 45.9184 20.2678 48.9484 18.8853C49.3014 18.7382 49.7132 18.3852 49.978 18.8853C50.125 19.1794 49.772 19.4736 49.5073 19.6501C48.919 20.0619 48.3012 20.4738 47.6834 20.8268C46.9774 21.2386 46.4185 21.7093 46.0949 22.4741C44.2417 22.7094 42.9179 23.9744 41.5647 25.0334C40.594 25.7688 39.6526 26.4454 38.5348 26.9455V26.9749ZM54.1552 15.7376C57.0968 13.6785 60.0385 11.6193 63.0096 9.61894C64.6276 8.53052 66.422 7.67743 68.3047 7.08909C68.54 7.03026 68.7753 6.94201 68.9812 6.88317C69.0989 7.00084 69.2166 7.05968 69.3048 7.17734C69.3048 7.20676 69.3048 7.35384 69.246 7.38326C69.0107 7.58918 68.7459 7.7951 68.4812 7.9716C64.7452 10.6191 60.7739 12.8548 57.3028 15.8847C56.5379 16.5319 55.5966 16.8261 54.5964 16.8849C54.0963 16.9143 53.4491 17.7086 53.155 16.9143C52.9196 16.2966 53.7433 16.0318 54.1846 15.7376H54.1552ZM66.069 5.32408C65.6866 4.38274 65.6866 4.35332 66.422 4.17682C67.9222 3.76499 69.4225 3.38257 70.8933 2.97073C71.7464 2.7354 72.5113 2.29414 73.3938 3.0884C73.8056 3.47082 74.5116 3.0884 75.0411 2.94132C76.2472 2.58831 77.4827 2.94131 78.6888 2.82365C78.9536 2.82365 79.1006 2.97073 79.1006 3.2649C78.983 3.38257 78.9241 3.52965 78.7771 3.6179C77.7475 4.26507 76.7179 4.91224 75.6883 5.55941C75.4235 5.73592 75.1 5.97125 74.8058 5.73592C73.4526 4.55924 72.3936 5.58883 71.3052 6.236C70.9522 6.44192 70.6874 6.70667 70.2462 6.35367C69.2754 5.53 68.3047 5.91242 67.3045 6.35367C63.8333 7.85393 60.8328 10.119 57.7734 12.237C56.0378 13.4431 54.3905 14.7963 52.7431 16.1201C51.8312 16.8555 50.7722 17.2085 49.6544 17.5027C49.3602 17.5909 48.9778 17.6203 48.8307 17.2673C48.713 16.9143 48.9778 16.679 49.2425 16.4731C52.5666 14.1491 55.8907 11.7958 59.2443 9.50127C61.274 8.11868 63.3332 6.82434 65.6866 6.08892C65.9807 6.00067 66.2161 5.76533 66.0396 5.38291L66.069 5.32408ZM55.4201 9.06002C56.7438 8.44227 58.0676 7.85393 59.3619 7.23618C59.7738 7.03026 60.1562 6.70667 60.5386 6.4125C60.7151 6.67726 61.0093 6.97142 60.6563 7.23618C59.2149 8.29518 57.7734 9.32477 56.332 10.3249C56.1555 10.4426 55.8319 10.472 55.6554 10.3838C55.3907 10.2367 55.0671 10.0308 54.9494 9.76603C54.8317 9.44244 55.0965 9.20711 55.4201 9.06002ZM43.6828 14.4139C45.0065 12.4724 46.9774 11.4428 48.9778 10.4132C49.1249 10.6779 49.2131 11.0015 48.919 11.2075C47.2422 12.3547 45.8008 13.855 43.8593 14.6198C43.5357 15.2964 42.9179 15.3552 42.3296 15.4141C42.8002 15.1199 43.065 14.5021 43.6828 14.4139ZM40.0645 20.5032C43.1532 17.738 46.242 14.9434 49.8603 12.8548C51.1252 12.1194 52.4784 11.531 53.8316 11.0015C54.1257 10.8839 54.4787 10.7662 54.6552 11.1486C54.7729 11.4134 54.5376 11.5899 54.3317 11.737C51.39 13.7373 48.7425 16.1789 45.6537 17.9733C44.0946 18.8853 42.5943 19.856 41.3294 21.1503C40.594 21.9152 41.4765 21.7387 41.7707 21.8858C41.5647 22.7389 40.9176 23.2978 40.1821 23.5037C38.3289 24.0038 37.5935 25.4452 36.8286 26.9749C36.2991 28.0633 35.9755 29.2988 34.9459 30.0637C35.652 26.3571 37.1816 23.0624 40.0351 20.5032H40.0645ZM34.3282 33.4466C34.8871 32.1228 35.7402 30.9167 36.505 29.6518C36.5933 29.5047 36.9757 29.4165 37.1522 29.4753C37.2993 29.5636 37.417 29.8577 37.4464 30.0931C37.5346 30.7108 37.1816 31.1815 36.8875 31.6816C36.2991 32.6523 35.8285 33.6525 35.8285 34.7998C35.0048 34.5938 34.9459 36.0647 34.4459 35.6823C33.7399 35.1822 34.0929 34.0938 34.3576 33.4466H34.3282ZM34.387 38.3592C34.1811 37.8297 34.2988 37.4767 34.7989 37.1237C35.5343 36.5648 35.8873 35.7999 35.8873 34.8586C36.2697 34.6527 36.5639 34.0938 37.1228 34.4468C36.3874 35.7999 36.1226 37.3296 35.2107 38.5651C35.093 38.7416 34.8871 38.8299 34.7106 38.977C34.6224 38.771 34.5047 38.5651 34.4164 38.3592H34.387ZM35.0636 45.7134C34.9165 45.6252 34.8283 45.3016 34.8283 45.0957C34.8871 44.6838 34.9754 44.272 35.1224 43.919C36.0932 41.8598 36.9463 39.7124 38.123 37.7709C39.6232 35.2704 40.6528 32.5053 42.6532 30.3284C43.4768 29.4165 44.0946 28.3281 45.2418 27.7691C45.4772 27.6515 45.6243 27.475 45.5654 27.1808C45.4478 26.769 45.0948 26.7984 44.8006 26.769C44.0358 26.6513 43.5945 27.122 43.2121 27.6809C42.1531 29.2106 41.0941 30.7108 40.0351 32.2405C39.9762 32.0346 39.9174 31.8287 39.9174 31.6227C39.9174 30.9756 38.7407 31.0932 39.0643 30.3578C39.2996 29.8577 39.6526 29.3282 40.0939 29.0046C42.8591 26.9749 45.6537 24.9745 48.7425 23.5037C49.1543 23.2978 49.5955 23.0624 50.0956 23.2684C49.9191 23.6214 49.7426 23.9744 49.5367 24.298C49.2131 24.7686 48.8601 25.2099 48.4777 25.6511C44.5358 29.946 41.5942 34.9469 38.5054 39.8595C37.3875 41.6539 36.1226 43.3307 35.5049 45.3898C35.446 45.6252 35.3284 45.9193 35.0342 45.7723L35.0636 45.7134ZM35.5637 48.0374C35.7108 47.4784 35.7696 46.7724 36.505 46.5665C36.5933 47.1843 36.5933 47.8314 36.2991 48.3904C36.0344 48.8904 36.2697 49.9789 35.5343 49.7729C34.9459 49.5964 35.446 48.6257 35.5637 48.0374ZM46.948 78.5132C46.948 78.5132 46.948 78.8074 46.9186 78.9545C46.9186 78.8074 46.9186 78.6603 46.9186 78.5132C45.9478 79.6016 44.8006 78.8662 43.7122 78.8074C42.8002 78.778 42.2413 78.1014 41.8589 77.366C41.2412 76.1304 40.6234 74.8655 40.1527 73.5712C38.8584 69.8941 37.6523 66.1876 36.1815 62.5693C35.446 60.716 34.7989 58.6863 36.1815 56.7153C37.1228 55.3622 37.9465 55.068 39.4467 55.7152C40.9764 56.3623 42.3002 57.2448 43.1827 58.7157C43.4768 59.2158 43.8593 59.657 44.2123 60.0983C44.4182 60.363 44.7418 60.6866 45.0065 60.5395C45.4478 60.3042 45.1536 59.8629 45.0653 59.4805C44.9183 58.8333 44.5947 58.245 44.0946 57.8037C42.5649 56.3623 42.6826 54.8326 43.6533 53.1559C44.7712 51.2438 45.4772 48.9787 46.9774 47.4784C49.3308 45.1251 50.5369 42.1246 52.3901 39.5065C52.5961 39.1829 52.7431 38.7122 53.2726 38.8005C53.7433 38.8887 53.861 39.3594 53.9787 39.7124C54.3022 40.5949 54.1846 41.5068 53.9198 42.3599C53.4491 43.7425 53.2432 45.2133 52.5372 46.5371C52.3607 46.8901 52.2725 47.3019 52.1548 47.6843C52.096 47.9197 52.1548 48.1844 52.4196 48.2433C52.5372 48.2433 52.7726 48.155 52.802 48.0374C54.3611 44.8898 55.9202 41.7421 54.4199 38.065C53.6257 36.1235 54.0375 34.0349 54.2728 32.0052C54.4199 30.6226 54.8023 29.2694 55.0377 27.9162C55.979 22.5329 62.3919 17.1791 67.4222 16.5025C69.1872 16.2672 70.9522 15.8259 72.7172 15.4729C72.9525 15.4141 73.2173 15.3846 73.2173 15.0905C73.2173 14.7963 72.9231 14.8257 72.6878 14.7669C71.5111 14.5316 70.4521 15.1787 69.3048 15.1199C69.0989 15.1199 68.8636 15.0022 68.6577 14.914C68.7459 14.7081 68.7459 14.3845 68.893 14.2668C69.8343 13.4725 70.7757 12.7077 71.7758 12.0017C74.894 9.76602 77.9828 7.50093 81.5422 5.97125C82.3365 5.61825 83.1308 5.20641 84.0427 5.32408C84.1898 4.70633 83.7485 4.41216 83.3955 3.97091C82.7483 3.11782 83.1308 2.47065 84.1603 2.35298C88.514 1.85289 92.603 2.58831 96.486 4.67691C98.6334 5.82417 100.869 6.85376 103.017 8.00101C105.076 9.08944 106.9 10.6485 108.782 12.09C109.429 12.59 109.782 13.3549 110.047 14.1491C110.165 14.5316 110.459 15.0022 110.047 15.267C109.665 15.5317 109.341 15.0611 109.018 14.8551C108.547 14.561 108.047 14.2374 107.635 13.8256C105.635 11.9429 103.281 11.7664 100.81 12.4135C99.5748 12.7371 98.3687 12.8254 97.1626 12.6783C92.8383 12.1488 88.514 12.6489 84.1898 12.7665C82.4836 12.8254 80.8951 13.5902 79.3066 14.2962C79.1006 14.3845 78.8653 14.6492 78.983 14.8846C79.0712 15.0611 79.3654 15.2376 79.5419 15.2081C80.1891 15.0905 80.8362 14.9434 81.4246 14.6786C83.1896 13.9138 85.0428 13.7667 86.9255 13.6785C90.5144 13.5608 94.1032 13.3549 97.6921 13.855C98.1628 13.9138 98.6923 13.9726 99.1629 13.855C104.193 12.443 107.753 14.914 110.989 18.2381C112.665 19.9443 113.665 22.0623 114.577 24.298C115.96 27.6221 116.695 31.1521 117.931 34.535C118.107 35.0057 118.254 35.4764 118.284 35.947C118.49 40.0066 118.843 44.0661 117.372 48.0079C117.313 48.155 117.225 48.3021 117.195 48.4492C116.99 49.3905 116.019 49.9789 114.96 49.9789C113.43 49.9789 111.871 50.0671 110.341 50.1848C108.106 50.3613 106.37 51.5674 104.811 53.0676C103.87 53.9796 103.781 53.9796 103.399 52.6852C103.222 52.0675 103.164 51.4203 102.958 50.8025C102.869 50.5378 102.605 50.1848 102.222 50.3613C102.046 50.4495 101.899 50.7437 101.899 50.9496C101.81 51.891 102.869 52.8911 102.075 53.6854C101.487 54.2737 100.369 53.9501 99.5159 54.2737C98.3393 54.7444 97.2508 55.2739 96.6037 56.3917C96.133 57.2154 95.3682 57.4213 94.6327 57.6861C93.8091 57.9803 93.3678 57.8038 93.1913 56.7153C92.4853 52.7441 89.426 50.7143 85.3664 51.2438C84.1603 51.3909 82.9248 51.3615 81.6893 51.332C80.1008 51.2732 78.5711 51.6262 77.1886 52.3028C75.1294 53.303 73.0702 54.2737 70.9228 55.0974C70.3638 55.3033 69.8638 55.5975 69.599 56.127C69.5107 56.3035 69.5696 56.5977 69.6284 56.8036C69.6578 56.8918 69.9226 57.0095 70.0403 56.9507C70.9816 56.5094 72.1583 56.8036 72.9819 55.9799C72.9819 55.9799 72.9819 56.0093 72.9819 56.0387C72.9819 56.0387 72.9819 56.0387 72.9231 56.0387C73.3644 57.892 72.3054 59.5688 70.6286 59.5099C68.8342 59.4805 67.0986 59.3334 65.3336 58.8039C62.686 58.0097 59.9797 57.5096 57.3028 56.8918C55.4789 56.4506 53.7727 55.6857 51.8901 55.5092C51.2429 55.4504 51.0958 55.068 51.0958 54.5091C51.1252 53.6266 51.0958 52.7146 51.2723 51.8321C51.6253 49.9495 51.6547 49.9789 49.7132 49.5082C49.5661 49.4788 49.3896 49.4788 49.2425 49.4494C49.066 50.1554 48.713 50.7437 48.2424 51.2732C48.2424 50.5084 48.4483 49.8318 49.066 49.3317C49.5073 47.7138 50.7134 46.5665 51.5076 45.1545C51.6547 44.8898 51.9489 44.5956 51.6253 44.3014C51.3311 44.0367 51.0075 44.1837 50.7722 44.4191C50.478 44.7132 50.1839 44.978 49.9485 45.331C47.7423 48.4786 46.5362 52.1263 44.8888 55.5681C44.83 55.7152 44.83 55.8917 44.8006 56.0387C44.7418 56.3917 44.8006 56.7153 45.183 56.833C45.6243 56.9801 45.7419 56.6271 45.8302 56.3329C46.3303 54.5973 46.8598 52.8911 48.1247 51.5085C47.9482 53.3324 47.0657 54.9797 46.595 56.7447C45.9773 59.0098 46.9774 62.9223 48.713 64.3637C49.2131 64.7755 49.5955 64.6285 49.9191 64.1284C50.831 62.7752 50.5957 61.1279 50.9781 59.657C51.2135 58.8039 50.5957 57.7155 51.4782 57.1566C52.3607 56.5977 53.4492 57.0683 54.3317 57.3919C58.3323 58.8628 62.5978 59.2158 66.6279 60.5395C67.6869 60.8925 68.893 60.8631 70.0403 60.9219C71.8347 61.0102 73.1879 61.6574 73.8644 63.4224C74.4234 64.805 75.4824 65.5404 76.8944 66.0111C79.0418 66.7171 81.2187 66.8347 83.4249 66.4523C84.3957 66.3052 85.3664 66.0699 86.3372 66.0111C89.4554 65.8051 91.4851 64.1578 92.6324 61.3632C93.1325 60.1571 93.6326 59.1275 95.1622 58.8922C96.1918 58.7451 97.0743 58.0391 97.7215 57.1272C98.251 56.3623 99.0453 55.9505 99.9278 55.6563C101.693 55.0386 103.046 55.0386 103.605 57.3625C104.634 61.8044 105.723 66.2464 106.9 70.6589C107.253 72.0121 106.282 72.6004 105.664 73.3653C105.017 74.1889 104.105 73.7183 103.428 73.3359C101.134 72.0415 98.8982 72.2768 96.6331 73.3359C96.0447 73.6006 95.4858 73.8948 94.8092 73.983C93.0148 74.2772 93.0148 74.336 91.897 72.6593C91.6911 72.3651 91.4557 72.1592 91.1027 72.2474C90.5144 72.3945 90.6909 72.8652 90.8085 73.2182C91.2498 74.8067 91.7499 75.1303 93.3972 75.1303C94.7798 75.1303 96.133 75.3656 97.5156 75.3656C98.6628 75.3656 99.8395 75.3656 100.575 74.2478C100.928 73.6889 101.428 73.8359 101.869 73.983C102.487 74.1595 103.075 74.4831 103.693 74.6596C105.311 75.1597 106.988 74.5419 107.488 72.9828C107.87 71.7473 108.282 70.4236 107.723 69.0116C107.105 67.5113 106.605 65.9522 106.341 64.3343C106.252 63.746 106.399 63.5989 106.958 63.746C110.989 64.8344 114.93 63.8048 117.931 60.9514C118.372 60.5395 118.666 59.6276 119.431 59.9806C120.108 60.2748 119.872 61.1573 119.902 61.775C120.078 64.6285 119.784 67.5113 119.313 70.3059C118.519 75.2774 117.96 80.3076 116.813 85.2497C116.754 85.485 116.784 85.7498 116.695 85.9851C116.607 86.191 116.489 86.4852 116.313 86.544C115.931 86.6911 115.754 86.3381 115.578 86.0733C115.254 85.6027 114.989 85.1026 114.695 84.6025C112.812 81.4255 110.077 79.1898 106.958 77.3365C106.399 77.013 105.782 76.807 105.135 76.66C104.517 76.5129 103.928 76.5717 103.575 77.0424C103.164 77.5719 103.752 77.8955 104.046 78.2485C104.193 78.425 104.37 78.6603 104.399 78.8956C104.693 81.4843 105.017 84.073 105.252 86.6911C105.34 87.603 104.487 87.2794 104.017 87.4265C103.723 87.5148 103.281 87.4854 103.37 87.956C103.428 88.3384 103.811 88.3679 104.105 88.3973C104.664 88.4561 105.252 88.5738 105.811 88.5738C106.547 88.5738 107.164 88.8385 106.811 87.4265C106.399 85.838 107.105 84.1024 107.458 82.4257C107.458 82.308 107.694 82.1315 107.782 82.1609C107.9 82.2197 108.017 82.3668 108.106 82.5139C108.635 83.5435 108.87 84.6613 109.135 85.7792C109.282 86.3381 109.4 86.897 109.576 87.4265C109.606 87.5442 109.782 87.6913 109.93 87.7207C110.194 87.7207 110.4 87.5442 110.43 87.3089C110.606 86.3969 110.518 85.5438 110.165 84.6613C109.694 83.4553 109.312 82.1903 108.87 80.9548C108.782 80.7195 108.694 80.4253 108.959 80.3076C109.135 80.2488 109.429 80.3076 109.606 80.4547C110.518 81.1019 111.047 82.1903 112.106 82.6904C110.488 83.0434 110.488 83.0728 111.077 84.3672C111.665 85.6027 112.606 86.6911 112.695 88.1619C112.695 88.309 113.048 88.6032 113.195 88.5738C114.96 88.1031 114.901 89.5445 115.225 90.5447C115.283 90.7212 115.136 90.986 115.107 91.2213C114.901 91.1036 114.666 91.0448 114.489 90.8977C113.842 90.427 113.195 89.8975 112.518 89.4563C112.195 89.2209 111.695 88.9856 111.4 89.3386C110.959 89.8975 111.636 90.1623 111.959 90.427C112.754 91.133 113.577 91.8096 114.401 92.4568C114.989 92.9275 115.166 93.5158 114.96 94.1924C113.871 97.8695 113.312 101.664 111.871 105.224C111.312 106.577 110.636 107.871 109.753 109.048C108.429 110.872 106.488 111.313 104.517 111.754C103.958 111.872 103.281 111.695 103.37 110.901C103.487 109.93 103.252 109.842 102.546 110.401C101.663 111.107 100.869 111.931 99.8101 112.431C97.4273 113.549 94.8975 113.784 92.3971 113.313C87.8374 112.46 83.2778 111.578 79.0418 109.636C77.2768 108.842 75.6589 107.695 74.0115 106.665C73.2173 106.165 72.3936 105.724 71.5405 105.341C70.9522 104.988 70.2756 104.694 69.6872 104.4C68.9224 104.018 68.1576 103.665 67.3633 103.282C67.3633 103.135 67.3045 102.959 67.1574 102.841C65.1571 101.458 62.9802 100.458 61.0387 98.9874C60.6857 98.7226 60.3327 98.4578 59.9797 98.1637C60.0679 96.7222 60.2444 95.2808 60.5092 93.8394C61.3623 89.368 61.9506 84.8378 63.2744 80.4547C63.3332 80.2488 63.2744 80.0135 63.245 79.7781C62.2742 80.8666 61.9506 82.2786 61.7153 83.6612C60.921 88.3384 60.1856 93.0157 59.4208 97.6636C59.156 97.4283 58.8619 97.2223 58.5971 96.9576C57.6852 96.0751 57.1557 94.9867 56.332 94.0453C56.2438 93.9571 56.1261 94.0453 56.1261 94.163C56.4497 95.7809 57.5381 97.693 58.7442 99.1933C58.8324 99.1933 58.9501 99.2521 59.0384 99.3403C60.1856 100.193 61.2152 101.223 62.2154 102.223C62.2154 102.223 62.2154 102.223 62.2154 102.253C62.333 102.282 62.4507 102.341 62.5684 102.459C63.039 102.988 63.598 103.282 64.1863 103.606C66.0396 104.371 67.834 105.341 69.599 106.283C69.9226 106.459 70.1285 106.695 69.952 107.018C69.6872 107.489 69.4519 108.077 68.8047 108.107C68.5694 108.107 68.5694 107.754 68.6282 107.518C68.8342 106.695 68.3047 106.783 67.8046 106.812C67.7163 106.636 67.6281 106.489 67.5398 106.312C67.3339 106.43 67.2457 106.606 67.2751 106.842C67.0103 106.9 66.8632 107.077 66.8044 107.312C65.6866 107.754 65.0982 108.665 64.5099 109.636C64.3628 109.901 64.2157 110.313 63.8333 110.048C63.6862 109.96 63.745 109.43 63.8333 109.166C64.0098 108.724 64.3922 108.342 64.5099 107.901C64.6275 107.489 64.2746 107.136 63.8921 106.989C63.5685 106.871 63.1861 107.077 63.0979 107.371C62.8625 108.371 62.3036 109.313 62.3625 110.401C61.7447 110.283 61.3917 109.96 61.3917 109.254C61.3917 107.783 61.6565 106.342 62.0095 104.93C62.0683 104.694 62.1271 104.429 62.186 104.194C61.9506 104.018 61.7447 103.841 61.5388 103.606C61.2152 104.106 61.0387 104.724 60.8916 105.371C60.6269 106.4 60.8916 107.665 59.862 108.43C58.9795 107.371 59.5384 106.224 59.6267 105.106C59.6561 104.694 59.862 104.312 59.862 103.929C59.862 103.518 60.2444 102.841 59.5384 102.753C58.9501 102.694 58.7736 103.37 58.7148 103.812C58.5383 105.253 58.4794 106.724 58.3618 108.165C58.3618 108.43 58.2441 108.636 57.9793 108.695C57.6558 108.754 57.5675 108.518 57.4793 108.283C57.4498 108.224 57.4498 108.136 57.4498 108.048C57.4498 105.547 57.4204 103.076 58.3323 100.723C58.2735 100.664 58.2147 100.605 58.1264 100.576C57.9205 100.429 57.8028 100.223 57.8028 100.046C57.2439 100.429 56.9203 101.017 56.8321 102.017C56.5968 104.694 56.2732 107.371 56.4497 110.077C56.4497 110.372 56.5673 110.754 56.1555 110.872C55.7731 110.989 55.5377 110.695 55.4495 110.372C55.2142 109.607 54.8023 108.901 54.8612 108.048C55.0082 105.194 54.6847 102.341 55.3318 99.5169C55.4201 99.1639 55.5672 98.6638 54.9494 98.5755C54.5376 98.5167 54.3317 98.8991 54.2728 99.1638C54.1257 99.7816 54.0669 100.458 54.0669 101.105C54.0669 103.135 54.0669 105.194 54.0669 107.224C54.0669 107.695 53.9786 108.195 53.8904 108.665C53.8904 108.783 53.7139 108.93 53.5668 108.989C53.155 109.166 53.1844 108.783 53.155 108.607C53.0961 107.871 53.0079 107.136 53.1256 106.4C53.5374 103.135 52.7726 99.8993 53.2432 96.634C53.2726 96.3987 53.2138 96.1339 52.8608 96.1927C52.7137 96.1927 52.5372 96.281 52.449 96.3987C51.8901 97.1047 52.0077 97.9283 52.0666 98.752C52.3019 101.341 52.5078 103.959 52.3901 106.547C52.3901 107.106 52.3313 107.695 52.2725 108.254C52.2431 108.636 52.3313 109.136 51.743 109.166C51.2723 109.195 50.9193 108.93 50.7722 108.548C50.4192 107.754 49.9485 106.989 50.0956 106.018C50.3898 103.753 50.6251 101.488 50.8016 99.1933C50.9487 96.987 51.0075 94.7807 51.0958 92.5745C51.0958 92.2509 51.0958 91.9273 51.037 91.6037C51.0075 91.2213 51.037 90.6918 50.4486 90.78C49.9485 90.8683 49.978 91.3684 49.978 91.7508C49.978 92.2509 50.0368 92.7216 50.0074 93.2216C50.0074 95.0161 49.978 96.8105 49.9485 98.6049C49.9485 98.8403 49.8897 99.105 49.8897 99.3403C49.5955 99.1344 49.7132 98.8403 49.7132 98.5755C49.625 95.5456 49.1543 92.5745 48.8307 89.574C48.4777 86.5734 48.5365 83.5435 48.5365 80.5136C48.5365 80.0135 48.566 79.5428 48.5365 79.0427C48.5071 77.7484 48.4483 77.719 46.8892 78.4544L46.948 78.5132ZM79.2183 58.3038C80.0714 58.3627 80.5715 57.4802 81.0716 56.8918C81.2187 56.7153 81.2481 56.4506 81.3657 56.2447C81.6893 55.7152 81.3363 54.8327 82.0717 54.5385C82.9248 54.2149 83.6603 54.6856 84.3663 55.0092C84.8075 55.2151 85.1899 55.6269 85.6606 55.2151C86.2195 54.7444 85.9548 54.2443 85.6606 53.6854C85.0723 52.5381 85.2193 52.3616 86.3666 52.2734C88.3964 52.1557 90.838 53.5971 91.5734 55.6563C92.9854 59.7453 91.3969 63.4224 87.2491 64.4814C85.2194 65.0109 83.0719 65.0403 80.9539 65.2168C80.2479 65.2756 79.4831 65.1285 78.7771 64.952C75.1294 63.9813 74.6293 63.1576 74.5999 60.2453C74.5999 58.8628 74.6881 57.7449 75.247 56.6859C75.5118 56.2152 75.5412 55.421 76.2178 55.3916C77.1297 55.3327 76.7179 56.2152 76.9238 56.6565C77.3945 57.6273 78.1593 58.245 79.1301 58.3333L79.2183 58.3038ZM79.2183 54.4502C79.7478 54.4502 80.1597 54.6562 80.1302 55.2739C80.1302 55.7152 79.8361 56.0682 79.4242 56.0976C78.6888 56.1564 78.2181 55.4504 78.0711 55.0092C77.924 54.5679 78.7771 54.5973 79.1889 54.4502H79.2183ZM80.6009 53.3324C80.6009 53.3324 80.7774 53.0382 80.8951 53.0088C81.2775 52.9206 81.6599 52.8029 82.0423 52.8029C82.513 52.8029 83.1308 52.8911 83.1013 53.4795C83.1013 53.8913 82.4836 53.7442 82.1306 53.8031C82.0423 53.8031 81.9835 53.8031 81.8952 53.8031C81.5717 53.8031 81.2481 53.8031 80.9539 53.7148C80.7774 53.6854 80.395 53.7148 80.5715 53.3324H80.6009ZM49.3602 61.0396C49.625 60.9808 49.772 61.1573 49.772 61.4809C49.7132 61.9515 49.5367 62.3928 48.9778 62.4222C48.8601 62.4222 48.6542 62.0692 48.6542 61.8927C48.6542 61.4809 48.9484 61.1573 49.3896 61.069L49.3602 61.0396ZM47.5658 58.4803C47.5658 58.4803 47.4187 58.4509 47.4187 58.4215C47.3304 57.0389 47.8305 55.8622 48.6542 54.8032C48.8601 56.1858 48.3306 57.3625 47.5952 58.4803H47.5658ZM49.4485 54.4208C49.2425 54.6856 49.0072 54.8032 48.6836 54.6856C48.8013 53.3618 49.4485 52.2146 50.0662 51.0967C50.1545 50.9496 50.3015 50.8908 50.4192 50.7731C50.4486 50.9202 50.5663 51.0967 50.5369 51.2144C50.125 52.2734 50.1839 53.4795 49.419 54.4208H49.4485ZM114.195 85.8674C114.195 85.8674 114.018 86.2793 113.871 86.4263C113.724 86.544 113.577 86.4263 113.489 86.2498C112.989 85.0732 111.636 84.1613 112.195 82.6316C112.871 83.72 113.548 84.779 114.166 85.8674H114.195ZM105.899 80.6901C105.752 80.3371 105.723 79.8958 105.723 79.484C105.723 79.0721 105.34 78.3956 106.076 78.3073C106.605 78.2485 106.929 78.7486 107.047 79.2486C107.135 79.5428 107.105 79.8958 107.135 80.2194C107.135 80.3076 107.135 80.3959 107.135 80.4547C107.253 81.2196 107.135 82.3374 106.547 82.3668C105.576 82.4257 106.164 81.249 105.899 80.6606V80.6901ZM87.3962 117.785C87.3962 118.138 87.1903 118.432 86.8079 118.314C86.6902 118.285 86.6314 117.902 86.6314 117.667C86.6314 117.402 86.7784 117.226 87.0726 117.226C87.3374 117.314 87.4256 117.549 87.3962 117.785ZM85.2193 119.726C85.2193 119.726 85.3664 119.785 85.4253 119.814C85.8959 120.138 85.7783 121.374 85.2488 121.697C85.1311 121.756 84.8958 121.785 84.8369 121.697C84.5428 121.403 84.8958 119.785 85.2488 119.697L85.2193 119.726ZM84.5722 118.638C84.4251 118.785 84.278 118.697 84.1898 118.579C83.8073 118.079 84.2486 116.696 84.8663 116.461C84.9252 116.461 85.0134 116.461 85.1017 116.461C85.1899 116.579 85.337 116.667 85.3959 116.785C85.69 117.667 85.1017 118.138 84.5722 118.638ZM82.2482 120.403C82.4247 120.138 82.6895 119.726 82.866 119.756C83.219 119.785 83.1013 120.256 83.1013 120.226C83.3367 121.285 83.0131 121.932 82.6012 122.55C82.3953 122.874 82.2482 123.433 81.8364 123.256C81.6305 123.168 81.6305 122.55 81.5717 122.138C81.4834 121.432 81.8952 120.932 82.2777 120.403H82.2482ZM81.5128 118.961C81.2775 118.049 81.3952 117.226 82.1894 116.608C82.3071 116.52 82.4836 116.461 82.6012 116.402C82.7483 116.314 82.8954 116.402 82.8954 116.608C82.8954 116.843 82.8954 117.079 82.866 117.314C82.7189 118.02 82.4836 118.697 81.8658 119.167C81.807 119.197 81.5128 119.079 81.5128 118.991V118.961ZM80.042 126.992C79.8066 127.257 79.6596 127.845 79.1595 127.492C78.8359 127.257 78.8947 126.786 78.9536 126.374C79.0712 125.286 80.0126 124.521 80.2185 123.462C80.748 124.256 80.5421 125.198 80.8068 126.051C80.8068 126.11 80.8068 126.169 80.7774 126.227C80.7774 126.169 80.7774 126.11 80.7774 126.051C80.5421 126.374 80.3067 126.698 80.042 126.992ZM79.3066 116.343C79.5713 115.99 79.689 115.578 79.7478 115.167C80.748 116.696 80.0714 118.197 79.5125 119.667C79.4242 119.873 79.1595 120.109 78.9241 119.962C78.7771 119.873 78.7182 119.579 78.6888 119.373C78.6006 118.314 78.5711 117.255 79.3066 116.343ZM78.7182 114.578C78.7182 114.049 78.6594 113.255 79.3948 113.313C80.2479 113.402 79.8655 114.108 79.689 114.608C79.6596 114.725 79.689 114.872 79.689 115.02C79.2771 115.137 78.6594 115.667 78.7182 114.608V114.578ZM80.1597 123.315C79.1301 123.668 78.8653 123.55 78.9241 122.727C78.9536 122.344 79.0124 121.903 79.2477 121.579C79.4831 121.226 79.5419 120.462 80.1597 120.697C80.6892 120.873 80.5421 121.521 80.4832 121.991C80.4244 122.433 80.042 122.815 80.1597 123.315ZM75.5412 122.962C76.3649 122.933 76.0707 124.227 76.0707 124.962C76.0707 125.492 75.6295 126.051 76.0707 126.58C74.9823 126.551 75.1294 125.698 75.1588 125.021C75.1588 124.286 74.6881 122.992 75.5412 122.962ZM75.6883 115.696C75.6883 115.931 75.7765 116.196 75.7177 116.402C75.6883 116.579 75.5118 116.726 75.3941 116.902C75.3353 116.755 75.2176 116.608 75.1882 116.461C75.1882 116.226 75.1882 115.99 75.1882 115.755C75.247 115.225 74.894 114.255 75.3941 114.255C75.8942 114.255 75.5706 115.167 75.6589 115.696H75.6883ZM75.247 119.344C75.247 119.344 75.5118 119.138 75.5412 119.167C75.9236 119.461 75.8354 119.873 75.7765 120.256C75.7471 120.55 75.5412 120.815 75.4235 121.109C75.1294 120.903 75.1 120.609 75.0705 120.138C75.0705 119.991 75.1294 119.667 75.2176 119.373L75.247 119.344ZM75.247 128.022C75.3353 127.463 75.7471 127.022 76.1001 126.61C76.159 127.169 76.306 127.728 76.2766 128.257C76.2472 128.64 76.3943 129.434 75.6883 129.287C75.2176 129.198 75.1588 128.522 75.247 128.022ZM75.8354 131.434C76.1295 131.169 76.3649 131.552 76.6296 131.669C76.7473 131.728 76.8944 131.669 77.012 131.669C77.1003 132.052 77.1003 132.405 76.6885 132.611C76.3355 132.787 76.0707 132.581 75.8942 132.287C75.7177 132.022 75.5706 131.669 75.8354 131.434ZM77.6886 112.725C77.6004 113.255 77.6004 114.137 77.0415 114.049C76.5414 113.961 76.9532 113.137 76.9238 112.637C76.9238 112.343 77.0709 111.901 77.4239 111.96C77.7769 112.019 77.6886 112.431 77.6886 112.725ZM77.8357 120.344C78.1593 121.55 77.8357 122.756 77.6592 123.933C77.4239 123.992 77.2768 124.139 77.218 124.345C76.4825 123.08 76.7179 121.697 76.8061 120.344C76.8061 120.05 77.012 119.667 77.4239 119.785C77.6004 119.844 77.7769 120.109 77.8063 120.315L77.8357 120.344ZM77.1297 116.402C77.3062 116.284 77.4533 116.284 77.5121 116.432C77.7475 116.902 77.6886 117.402 77.5121 117.844C77.4239 118.049 77.1885 118.167 77.012 118.314C76.8944 118.138 76.8061 117.932 76.7179 117.814C76.7179 117.226 76.7179 116.726 77.1591 116.402H77.1297ZM77.1886 124.668C77.1886 124.668 77.218 124.521 77.2474 124.433C77.3945 124.286 77.5415 124.139 77.6886 123.992C78.0416 124.08 78.1593 124.345 78.1593 124.698C78.1887 125.58 78.2181 126.492 77.6298 127.257C77.5121 127.433 77.3062 127.463 77.218 127.257C76.8355 126.404 76.865 125.551 77.1886 124.698V124.668ZM77.3062 128.581C77.3945 128.375 77.6592 128.257 77.8651 128.139C77.8946 128.139 78.1005 128.316 78.1887 128.463C79.0124 129.993 78.8065 130.581 77.1591 131.522C77.5121 130.552 76.8944 129.522 77.3356 128.581H77.3062ZM73.7174 120.256C73.5114 120.462 73.6291 120.579 73.5409 120.315C73.1879 119.138 73.0408 117.932 73.3055 116.726C73.3644 116.49 73.3349 116.255 73.3644 116.02C73.6585 116.079 74.0115 115.961 74.188 116.314C74.2469 116.461 74.3057 116.637 74.2763 116.785C73.9821 117.932 74.7469 119.256 73.7174 120.256ZM73.3644 113.255C73.3644 113.255 73.5703 113.019 73.6879 112.96C74.0409 112.843 74.0704 113.137 74.1292 113.343C74.3057 114.343 73.7762 115.167 73.3644 116.02C73.3938 115.108 72.9819 114.166 73.3644 113.255ZM73.3644 111.078C73.3644 111.078 73.2173 110.784 73.2467 110.666C73.4526 110.136 73.6585 109.636 74.2763 109.489C74.3645 109.607 74.5116 109.725 74.5116 109.842C74.4822 110.431 73.6291 111.313 73.3349 111.107L73.3644 111.078ZM71.5111 110.431C71.5111 110.431 71.6582 110.666 71.7464 110.784C71.6582 111.195 71.4817 111.548 71.0404 111.666C71.011 111.666 70.8345 111.431 70.8345 111.284C70.8051 110.813 71.0993 110.548 71.5111 110.431ZM70.8345 108.224C70.9522 107.812 70.7463 107.165 71.5405 107.253C71.9229 107.283 72.07 107.577 72.0406 107.93C71.9818 108.548 71.6582 109.019 71.0404 109.019C70.7463 109.019 70.8051 108.518 70.8639 108.254L70.8345 108.224ZM71.1875 113.225C71.3346 113.078 71.4817 112.843 71.717 112.99C71.8053 113.049 71.8935 113.255 71.8641 113.402C71.7758 113.784 71.6876 114.166 71.5405 114.49C71.4523 114.667 71.2169 114.814 71.0404 114.961C70.9522 114.755 70.8933 114.519 70.8345 114.402C70.8345 113.902 70.8933 113.519 71.1581 113.225H71.1875ZM71.1287 116.402C71.2758 116.049 71.3934 115.549 71.8641 115.578C72.4818 115.608 72.1289 116.196 72.2759 116.52C72.1877 116.902 72.1289 117.285 71.9818 117.667C71.9523 117.814 71.717 118.02 71.6876 117.991C71.4817 117.873 71.2758 117.755 71.1875 117.579C70.9816 117.226 71.011 116.814 71.1875 116.432L71.1287 116.402ZM69.3931 110.872C69.3342 111.195 69.2754 111.431 69.2166 111.666C69.1577 111.901 69.0107 112.137 68.7165 112.078C68.6282 112.078 68.5106 111.843 68.4812 111.725C68.4223 111.49 68.4223 111.254 68.4223 111.019C68.4223 110.607 68.4223 110.107 68.9224 110.077C69.5696 110.077 69.2166 110.666 69.3637 110.872H69.3931ZM69.0989 113.549C69.5402 113.549 69.4519 113.961 69.4813 114.225C69.4813 114.519 69.4813 114.902 69.0695 114.931C68.6577 114.931 68.6282 114.608 68.6577 114.284C68.7165 113.99 68.7753 113.608 69.1283 113.578L69.0989 113.549ZM69.5107 115.931C69.7755 115.873 69.7755 116.196 69.8343 116.402C69.8932 116.932 69.7461 117.373 69.1872 117.491C68.9518 117.549 68.8342 117.285 68.8342 117.049C68.8342 116.549 68.9812 116.079 69.5107 115.961V115.931ZM66.9809 114.814C66.6279 115.137 66.4514 114.931 66.3043 114.578C65.9219 113.696 66.3043 112.872 66.5985 112.078C67.1574 112.254 67.5692 112.578 67.5104 113.255C67.481 113.813 67.481 114.402 66.9809 114.814ZM66.9515 117.02C66.9515 117.02 66.8338 117.138 66.775 117.196C66.6573 117.196 66.6279 117.255 66.6279 117.343C66.6279 117.226 66.6279 117.079 66.5985 116.961C66.4514 116.52 66.5396 116.167 67.0103 115.99C67.128 115.931 67.3633 115.99 67.4222 116.079C67.6869 116.579 67.2162 116.785 66.9515 117.049V117.02ZM66.1866 110.019C66.4514 109.136 66.6867 108.224 66.9221 107.312C67.0692 107.312 67.2162 107.312 67.3633 107.312C67.3633 108.901 67.2457 110.489 66.5691 111.96C66.0101 111.401 65.9513 110.754 66.1572 110.019H66.1866ZM65.1571 115.373C65.1571 115.373 65.1571 115.726 64.9806 115.726C64.7746 115.726 64.4216 115.667 64.3334 115.549C63.7156 114.372 63.6568 113.107 63.8921 111.843C63.9804 111.431 64.2157 111.048 64.7158 111.166C65.0982 111.254 65.0394 111.637 65.0394 111.96C65.0394 112.107 65.0394 112.284 65.0394 112.431C65.2453 113.402 64.3628 114.431 65.1571 115.402V115.373ZM62.5095 110.372C62.5095 110.901 62.5095 111.46 62.4801 111.99C62.4801 112.166 62.4213 112.549 62.0683 112.343C61.8918 112.254 61.7741 111.99 61.7447 111.784C61.6565 111.137 62.2742 110.872 62.5095 110.372ZM60.2444 111.284C59.9797 111.225 59.7738 110.489 59.6561 110.048C59.5973 109.724 59.862 109.371 60.215 109.46C60.7445 109.577 60.5092 110.107 60.5974 110.489C60.3915 110.725 60.8328 111.431 60.2444 111.284ZM49.3602 106.724C49.3602 107.018 49.3014 107.43 48.9484 107.459C48.713 107.459 48.6836 107.136 48.713 106.695C48.7719 106.547 48.8601 106.047 49.0072 106.047C49.3896 106.047 49.3602 106.43 49.3602 106.724ZM47.4481 115.549C47.9188 113.902 48.36 112.254 48.8307 110.636C49.066 109.872 49.5661 109.577 50.331 109.901C53.3021 111.225 56.4203 112.254 59.0384 114.255C60.4209 115.314 61.8624 116.167 63.4803 116.814C64.3922 117.196 65.3336 117.432 65.7748 118.461C65.8925 118.785 66.1866 118.961 66.5396 118.961C68.7165 119.02 70.0991 120.726 71.8641 121.638C72.4818 121.962 72.7466 122.58 72.7466 123.286C72.7466 124.845 73.1584 126.257 73.7762 127.698C74.3057 128.875 74.3645 130.228 74.6881 131.493C74.8646 132.17 74.541 132.375 73.9821 132.405C71.3052 132.611 68.6871 133.111 66.1866 134.17C65.716 134.376 65.2453 134.405 64.7452 134.346C62.7449 133.993 60.7151 133.964 58.7148 133.464C57.3322 133.111 55.9202 132.846 54.5082 132.581C52.8902 132.287 51.8901 131.522 51.39 129.787C50.3015 126.051 48.9484 122.374 47.6246 118.697C47.2422 117.638 47.1834 116.637 47.4775 115.608L47.4481 115.549ZM61.5976 150.996C61.627 150.437 61.6564 150.202 61.6564 149.937C61.6564 149.378 61.627 148.496 62.1565 148.496C62.7155 148.496 62.5684 149.378 62.5095 149.849C62.3625 151.261 62.9508 152.526 63.039 153.909C63.039 154.115 63.039 154.409 62.7449 154.409C62.6566 154.409 62.5095 154.203 62.4507 154.085C61.8624 153.026 61.3329 151.938 61.5976 150.967V150.996ZM61.2446 143.819C61.1564 145.76 61.0975 147.702 61.0387 149.673C61.0387 149.908 61.0387 150.173 60.8034 150.261C60.5092 150.349 60.3621 150.084 60.2444 149.879C59.8326 149.261 59.5679 148.614 59.5973 147.849C59.7738 144.201 59.8914 140.553 60.0974 136.906C60.1268 136.082 60.2739 135.229 61.3034 135.229C61.8035 135.317 62.333 135.288 62.0977 135.906C61.1858 138.494 61.4211 141.171 61.274 143.848L61.2446 143.819ZM62.9802 140.848C62.8331 141.201 62.8331 141.671 62.3625 141.818C62.3036 141.465 62.2448 141.083 62.2154 140.877C62.4213 139.318 62.4801 137.935 62.9214 136.611C63.0096 136.317 63.1567 135.994 63.3332 135.758C63.6274 135.376 64.0686 135.435 64.4511 135.582C64.9511 135.788 64.9217 136.17 64.657 136.582C63.8039 137.906 63.5391 139.436 62.9802 140.877V140.848ZM64.3628 147.378C64.3628 144.642 64.6864 142.407 65.3924 140.259C65.4806 140.024 65.5689 139.818 65.8631 139.847C65.9219 139.847 65.9513 140.142 65.9513 140.289C65.9513 141.171 65.9807 142.083 65.9513 142.966C65.8042 145.231 65.3924 147.466 65.4512 149.731C65.4512 149.996 65.3924 150.467 64.9217 150.32C64.7452 150.261 64.5393 150.026 64.4805 149.82C64.1863 148.878 64.4216 147.878 64.3922 147.349L64.3628 147.378ZM59.0678 140.789C59.0678 142.583 59.0678 144.378 59.0678 146.172C59.0678 146.407 59.0972 146.672 58.8324 146.79C58.5677 146.878 58.3912 146.672 58.2735 146.466C57.8323 145.701 57.2439 145.025 57.3028 144.025C57.4498 141.671 57.5381 139.288 57.6558 136.935C57.6558 136.464 57.7734 135.964 57.9205 135.494C58.0088 135.199 58.2441 134.935 58.6265 134.964C59.0089 135.023 59.1854 135.288 59.156 135.641C59.0383 137.347 59.0089 139.053 59.0678 140.789ZM56.6262 141.259C56.5968 141.671 56.9792 142.348 56.2732 142.436C55.9202 142.465 55.7731 141.877 55.5966 141.524C55.0377 140.436 55.273 139.288 55.3024 138.171C55.3024 137.288 55.4789 136.376 55.5377 135.494C55.5672 135.052 55.6554 134.611 56.1555 134.641C56.7733 134.641 56.9203 135.111 56.8615 135.67C56.7733 136.641 56.7144 137.612 56.6556 138.847C56.6556 139.494 56.7144 140.406 56.6556 141.289L56.6262 141.259ZM54.2728 137.612C53.4786 137.671 53.6551 136.67 53.3903 136.111C53.2138 135.758 53.1256 135.347 53.0373 134.935C52.9196 134.405 53.2726 134.199 53.7139 134.111C54.2728 134.023 54.3905 134.405 54.3905 134.846C54.3905 135.258 54.3317 135.67 54.3022 136.111C54.214 136.612 54.6552 137.582 54.2434 137.612H54.2728ZM62.6272 161.969C61.3623 163.234 60.215 164.616 59.2737 166.175C58.9501 166.705 58.5971 167.087 57.9205 166.499C52.9491 162.028 47.2716 158.762 41.1823 156.085C40.5057 155.791 39.888 155.35 39.182 155.203C37.5935 154.879 37.1522 153.762 36.9757 152.379C36.4756 148.261 35.9167 144.142 35.446 139.994C35.299 138.671 35.093 137.406 34.2694 136.317C34.0634 136.053 33.8575 135.758 33.5045 135.876C33.0339 136.023 32.8574 136.347 33.0633 136.817C33.5045 137.729 33.0633 137.788 32.3278 137.612C27.0328 136.288 21.7084 134.964 16.4133 133.64C15.9427 133.523 15.472 133.376 15.0013 133.199C14.4718 133.023 14.4424 132.64 14.7954 132.287C15.0602 131.993 15.4132 131.758 15.7662 131.552C24.2676 126.727 32.5338 121.462 41.653 117.755C42.2707 117.52 42.8591 117.255 43.5063 117.285C44.4476 117.226 44.5947 117.991 44.8006 118.55C45.889 121.462 46.948 124.374 47.8894 127.316C48.8895 130.405 49.8603 133.552 50.7134 136.7C52.2725 142.465 55.1847 147.555 58.45 152.438C60.1268 154.938 61.3623 157.674 62.8037 160.292C63.1567 160.91 63.2155 161.41 62.5978 162.028L62.6272 161.969ZM64.2157 157.174C63.8039 157.174 64.1275 156.174 63.951 155.791C63.9216 155.144 63.8921 154.673 64.1863 154.262C64.304 154.085 64.5393 153.997 64.7452 153.85C64.8335 154.056 64.9806 154.262 64.9806 154.468C65.01 154.85 65.0688 155.291 64.9806 155.674C64.8335 156.233 64.9806 157.203 64.2157 157.203V157.174ZM73.2467 149.408C73.1879 150.79 73.0114 152.144 72.8937 153.526C72.8643 153.879 72.7172 154.144 72.4524 154.35C70.2168 155.997 68.2164 157.939 65.8042 159.321C65.6277 159.439 65.363 159.41 65.1276 159.468C65.1276 159.233 64.9806 158.968 65.0688 158.792C65.9807 156.968 65.8336 154.997 65.9807 153.056C66.2749 148.672 66.7161 144.289 67.0397 139.877C67.128 138.818 67.9517 137.965 67.5398 136.67C67.3339 136.053 68.5694 135.582 69.3048 135.288C70.2756 133.846 71.8347 134.052 73.2467 133.846C74.1292 133.729 74.3939 134.199 74.3057 135.023C74.1292 136.553 74.0115 138.112 73.7762 139.641C73.3055 142.877 73.4232 146.143 73.2467 149.408ZM74.2763 152.438C73.3349 152.144 73.7762 150.585 73.8939 149.555C74.2763 145.907 74.188 142.23 74.7764 138.612C74.894 137.906 74.894 137.141 75.1 136.435C75.3353 135.582 75.1 134.288 76.4825 134.229C78.2476 134.14 79.7478 135.199 80.042 136.611C80.1302 136.994 80.1302 137.406 80.0714 137.818C79.8361 140.406 79.5713 142.995 79.3066 145.584C79.2771 145.907 79.1006 146.26 79.1595 146.525C79.689 148.319 78.7771 149.261 77.2768 149.879C77.1591 145.584 77.3356 141.348 78.4829 137.17C78.63 136.7 78.7476 136.111 78.1887 135.935C77.6004 135.758 77.4827 136.435 77.3062 136.847C77.3062 136.906 77.3062 136.994 77.3062 137.082C76.9238 140.7 76.512 144.348 76.1884 147.966C76.1001 148.79 75.8942 149.731 76.7179 150.379C76.159 151.408 75.247 152.673 74.2763 152.35V152.438ZM74.3645 154.85C74.5704 154.144 75.1588 153.791 75.7177 153.438C75.806 154.379 75.1882 154.703 74.3645 154.85ZM83.5132 162.292C82.866 162.498 82.4248 162.204 82.0129 161.763C81.6599 161.38 81.6893 160.88 81.6305 160.38C81.3952 157.615 81.6599 154.879 81.7776 152.114C81.7776 151.644 81.9541 151.114 82.2482 150.761C82.5718 150.349 83.0131 149.731 83.6014 149.908C84.3074 150.143 83.8956 150.849 83.8662 151.379C83.8073 152.908 83.8662 154.468 83.8662 155.997C83.8662 155.997 83.8073 155.997 83.7779 155.997C83.8662 157.703 83.9544 159.41 84.0721 161.086C84.0721 161.586 84.1309 162.057 83.5132 162.263V162.292ZM84.0427 147.349C83.6897 148.172 83.3073 149.055 82.2188 149.055C81.454 149.055 81.0716 149.467 80.748 150.084C80.1597 151.232 79.1595 151.879 77.8651 152.026C77.6886 153.232 76.6885 153.085 75.8942 153.261C76.4531 152.732 76.8944 152.114 77.6886 151.849C79.4831 150.114 81.2481 148.349 83.0425 146.613C83.2778 146.378 83.6014 146.054 83.8662 146.26C84.2192 146.496 84.1603 146.996 84.0427 147.349ZM85.0428 142.524C85.1899 142.936 84.6016 143.407 84.1015 143.466C83.4837 143.524 83.3367 142.995 83.2484 142.524C83.219 142.289 83.2484 142.054 83.2484 141.848C83.4838 140.612 83.4249 139.347 84.0133 138.229C84.1015 138.053 84.3074 137.847 84.4839 137.788C84.7781 137.7 84.9252 137.994 84.9252 138.229C84.9546 139.671 84.4545 141.083 84.984 142.524H85.0428ZM86.5137 160.88C86.6019 161.204 86.3666 161.469 85.9842 161.557C85.6018 161.645 85.2782 161.38 85.2193 161.116C85.0134 160.41 84.8075 159.704 84.7487 158.998C84.4251 155.674 84.631 152.35 84.9546 149.025C84.9546 148.79 85.0134 148.525 85.1017 148.319C85.2488 147.937 85.5429 147.555 85.9842 147.584C86.5137 147.613 86.5137 148.143 86.4843 148.525C86.2489 150.467 86.8079 152.438 86.3078 154.468C86.8079 156.527 85.8959 158.704 86.5137 160.88ZM85.8077 146.348C85.8077 146.26 85.8077 146.26 85.8077 146.26C85.1899 145.054 85.337 144.054 86.5137 143.201C87.1609 142.73 87.7198 142.142 88.3375 141.583C88.514 141.436 88.7788 141.259 88.9259 141.495C89.0435 141.671 89.073 141.965 89.0435 142.201C88.9847 142.818 88.5434 143.201 88.1022 143.583C87.2197 144.407 86.3078 145.231 85.8077 146.348C85.8077 146.348 85.8077 146.348 85.8077 146.319C85.8077 146.319 85.8077 146.319 85.8077 146.348ZM88.6317 160.91C87.9551 161.145 87.5433 160.91 87.3962 160.204C87.0726 158.674 87.3079 157.115 87.2197 155.556C87.1903 154.732 87.2197 153.909 87.2197 152.85C87.3079 151.143 87.3962 149.202 87.4845 147.231C87.4845 146.76 87.5433 146.231 87.7492 145.79C87.9257 145.378 88.2199 144.819 88.8082 144.966C89.2789 145.113 89.1024 145.642 89.073 146.025C88.9553 149.378 89.0435 152.732 89.1612 156.056C89.22 157.292 89.3377 158.498 89.6907 159.674C89.9849 160.733 89.1906 160.674 88.6023 160.88L88.6317 160.91ZM92.4265 159.645C91.3675 160.38 90.8085 160.145 90.3673 158.909C89.8966 157.645 90.0143 156.321 89.9555 155.056C89.8672 151.644 89.9555 148.231 89.9555 144.819C89.9555 144.113 89.8966 143.348 90.5144 142.76C90.8674 142.436 91.1321 141.877 91.6911 142.054C92.2794 142.26 92.0441 142.877 92.0441 143.319C92.0735 144.378 92.0441 145.437 92.0441 146.966C92.1911 150.29 92.3676 154.115 92.9266 157.88C93.0148 158.527 93.0737 159.145 92.4265 159.615V159.645ZM90.1908 140.259C90.2202 139.583 90.838 139.436 91.3086 139.171C91.4557 139.259 91.6616 139.288 91.7205 139.406C91.9264 139.847 91.191 140.789 90.6615 140.73C90.485 140.73 90.1908 140.406 90.1908 140.259ZM94.8387 158.821C93.8385 158.998 93.8385 158.233 93.7208 157.615C93.2501 154.879 93.1325 152.085 92.9854 149.32C92.8677 147.202 92.8971 145.084 92.8383 142.936C92.8383 141.965 92.8089 140.965 93.3384 140.083C93.6914 139.524 94.2209 138.759 94.7504 138.906C95.3682 139.083 95.1622 139.994 95.1622 140.612C95.1622 143.142 95.1622 145.672 95.1622 148.202C95.1034 151.232 94.9563 154.232 95.3682 157.233C95.4564 157.821 95.8388 158.586 94.8092 158.792L94.8387 158.821ZM93.3384 137.641C93.1619 137.2 93.8385 136.347 94.3974 136.258C94.5445 136.317 94.7798 136.376 94.7798 136.464C94.7798 137.2 94.3386 137.612 93.7208 137.847C93.6326 137.876 93.3972 137.759 93.3384 137.641ZM94.2209 133.964C92.603 135.67 90.838 137.259 89.1318 138.877C88.8965 139.083 88.5729 139.436 88.367 139.377C87.8669 139.23 88.1022 138.73 88.0728 138.377C88.0728 138.053 88.0728 137.612 87.7492 137.553C87.2197 137.465 87.102 137.935 87.0138 138.347C86.8961 138.906 86.6019 139.436 86.7784 140.024C86.9255 140.524 86.9844 141.112 86.3078 141.112C85.9254 141.112 85.8077 140.495 85.8665 140.083C86.1019 138.347 86.4254 136.7 88.6023 136.288C89.5436 136.111 90.4261 135.641 91.3086 135.229C91.6028 135.111 91.8676 134.817 91.7205 134.435C91.544 133.935 91.0733 133.935 90.7203 134.17C88.9259 135.229 86.9844 135.758 84.9546 136.141C84.1309 136.288 83.4543 136.464 82.866 135.464C82.4836 134.817 81.6305 134.405 80.9539 133.964C80.4244 133.64 79.1889 133.376 79.3654 133.17C80.2185 132.199 78.983 131.111 79.8949 130.081C81.101 128.698 81.9247 126.933 82.8954 125.345C83.2778 124.698 83.7191 124.139 84.3957 123.786C87.102 122.374 89.5142 120.373 92.4265 119.314C93.5149 118.903 94.4857 118.314 95.3387 117.549C96.1918 116.785 97.1626 116.137 98.3687 116.079C98.7217 116.079 99.0159 116.02 99.2512 115.755C100.428 114.255 102.046 114.049 103.811 113.99C105.517 113.931 107.164 113.343 108.517 112.196C109.312 111.519 110.135 110.872 110.959 110.225C112.871 112.725 111.136 114.696 109.694 116.402C104.576 122.315 99.5748 128.316 94.1915 133.993L94.2209 133.964ZM104.252 125.11C103.458 126.58 102.281 127.698 100.987 128.698C101.693 127.08 102.928 125.727 104.252 125.11ZM98.2216 158.027C97.6627 158.321 97.1332 158.38 96.8096 157.674C96.3095 156.615 96.0448 155.527 96.0153 154.35C96.0153 152.232 96.0153 150.114 96.0153 147.966C95.8388 144.613 96.0742 141.289 96.3389 137.935C96.3389 137.612 96.3978 137.288 96.7802 137.229C96.839 137.229 96.9861 137.641 96.9861 137.876C97.0155 139.436 97.0743 140.965 97.0743 142.524C97.0155 146.701 97.3685 150.82 97.9568 154.968C98.0451 155.615 98.1922 156.262 98.5746 156.791C98.957 157.321 98.7511 157.703 98.251 157.968L98.2216 158.027ZM141.435 131.052C140.758 131.346 140.082 131.611 139.376 131.817C134.934 133.199 130.61 134.846 126.285 136.553C121.137 138.582 115.931 140.524 110.724 142.465C109.782 142.818 108.812 143.348 107.753 142.554C107.311 142.23 106.782 142.613 106.841 143.26C106.9 143.907 107.105 144.525 107.517 145.084C109.4 147.555 109.576 150.496 109.753 153.438C109.812 154.468 109.253 154.879 108.37 155.144C106.164 155.732 103.987 156.409 101.781 156.968C99.8395 157.468 99.7807 157.468 99.0453 155.556C98.7511 154.821 98.6334 153.967 98.5452 153.173C97.9863 147.731 97.7803 142.26 97.9568 136.788C98.0157 134.641 99.5454 133.493 100.81 132.14C100.987 131.964 101.281 132.052 101.281 132.375C101.281 133.023 101.369 133.699 101.281 134.346C100.81 138.759 100.987 143.142 101.31 147.525C101.34 148.025 101.34 148.525 101.487 148.967C101.663 149.525 101.81 150.496 102.575 150.261C103.193 150.055 102.634 149.261 102.516 148.731C101.693 144.525 101.928 140.289 102.075 136.053C102.134 134.67 102.252 133.287 102.369 131.905C102.428 131.346 102.516 130.758 102.605 130.199C102.752 129.434 103.281 128.463 103.811 128.551C104.752 128.698 104.252 129.757 104.223 130.375C104.164 133.964 103.987 137.553 104.664 141.112C104.752 141.524 104.723 141.936 104.84 142.318C104.987 142.701 105.311 143.054 105.752 142.907C106.252 142.76 106.194 142.318 106.017 141.907C104.723 139.23 104.987 136.317 104.84 133.523C104.752 131.581 105.046 129.61 105.164 127.669C105.223 126.669 105.576 125.757 106.341 125.051C106.517 124.904 106.694 124.639 106.958 124.815C107.105 124.933 107.194 125.198 107.194 125.404C107.164 126.786 107.223 128.198 106.988 129.551C106.488 132.581 107.282 135.553 107.253 138.582C107.253 138.935 107.576 139.318 107.782 139.641C107.929 139.847 108.194 139.936 108.4 139.818C108.518 139.759 108.576 139.553 108.606 139.406C108.606 139.171 108.635 138.906 108.606 138.671C107.341 133.552 107.929 128.463 108.841 123.374C108.959 122.638 108.782 121.903 109.106 121.226C109.253 120.873 109.459 120.432 109.959 120.52C110.341 120.579 110.341 121.021 110.312 121.344C110.312 122.227 110.165 123.139 110.165 124.021C110.165 127.934 110.518 131.846 111.136 135.729C111.194 136.053 111.283 136.376 111.4 136.641C111.489 136.847 111.753 137.023 111.989 136.906C112.106 136.847 112.224 136.641 112.224 136.523C112.195 136.023 112.136 135.552 112.048 135.082C111.253 130.552 110.753 126.051 111.489 121.462C111.636 120.491 111.577 119.52 111.636 118.55C111.636 118.138 111.636 117.726 111.753 117.343C112.048 116.49 113.254 115.255 113.46 115.52C113.93 116.167 113.577 116.932 113.577 117.638C113.577 118.932 113.46 120.256 113.401 121.55C112.93 125.433 114.254 129.169 114.342 132.993C114.342 133.14 114.371 133.317 114.43 133.464C114.548 133.787 114.783 134.082 115.136 134.052C115.578 134.052 115.578 133.64 115.519 133.317C115.283 131.611 114.989 129.934 114.783 128.228C114.313 124.404 114.43 120.579 114.695 116.726C114.695 116.49 114.783 116.255 114.872 116.02C115.019 115.608 114.872 114.872 115.519 114.872C116.284 114.872 116.578 115.461 116.637 116.196C116.784 119.285 116.901 122.403 117.137 125.492C117.284 127.581 117.637 129.669 117.901 131.787C117.96 132.199 117.99 132.699 118.49 132.67C119.078 132.67 118.96 132.14 118.931 131.758C118.725 130.14 118.578 128.522 118.313 126.904C117.813 123.903 117.99 120.873 117.901 117.873C117.872 116.549 118.313 116.314 119.549 116.608C120.314 116.785 120.284 117.226 120.225 117.873C119.872 121.697 120.049 125.551 120.52 129.346C120.608 130.022 120.52 131.228 121.284 131.111C122.49 130.905 121.667 129.846 121.549 129.11C121.049 125.61 121.049 122.109 121.431 118.608C121.49 117.961 121.726 117.402 122.49 117.726C122.991 117.932 123.991 117.961 123.579 118.932C122.491 121.374 123.049 123.903 122.902 126.404C122.844 127.463 122.991 128.522 123.02 129.581C123.02 130.11 123.255 130.522 123.491 130.934C123.638 131.199 123.873 131.228 124.108 131.111C124.226 131.052 124.314 130.846 124.344 130.699C124.373 130.463 124.403 130.199 124.344 129.963C123.491 127.316 124.02 124.609 123.991 121.932C123.991 120.991 123.991 119.697 124.785 119.285C125.726 118.814 126.491 119.932 127.256 120.52C131.433 123.786 135.905 126.639 140.347 129.551C140.758 129.816 141.2 130.052 141.582 130.346C141.906 130.581 141.906 130.934 141.523 131.111L141.435 131.052Z" fill="#2A2C35"/>
<path d="M78.3652 96.6932C79.1594 96.2225 79.6595 95.4577 80.2773 94.8105C80.6891 94.3987 81.3363 93.6927 81.6304 94.987C81.7775 95.6342 82.4247 95.7519 82.7483 95.4283C83.6014 94.6046 85.0428 94.0751 85.0134 92.8102C85.0134 91.81 85.6017 91.3982 85.9253 90.6922C86.396 89.692 87.6903 89.1625 87.4844 87.8093C88.514 89.5155 87.1902 90.9275 86.896 92.4572C86.8372 92.7219 86.5136 93.0455 86.6901 93.2808C86.9549 93.6044 87.3961 93.6927 87.808 93.4868C88.8376 92.9573 89.6612 92.163 90.4849 91.3688C91.0732 90.8098 91.7498 90.1627 92.2205 91.5747C92.397 92.1336 92.9559 92.163 93.456 91.8688C93.8678 91.6041 94.2797 91.3393 94.6621 91.0452C95.9859 90.0156 97.3684 89.2507 99.1335 89.6626C99.7512 89.8097 100.428 89.6626 101.016 89.3096C101.31 89.1625 101.634 88.986 101.487 88.6036C101.428 88.4565 101.046 88.3682 100.84 88.4271C99.8689 88.7212 98.8981 88.633 97.9274 88.4859C96.28 88.2212 96.1035 87.8976 96.4859 86.2796C97.0449 83.9851 98.398 81.9848 99.0452 79.7197C99.1629 79.3667 99.6924 79.1313 100.075 78.8372C100.31 78.2783 100.84 77.3075 99.8689 77.4252C97.6626 77.6605 95.4269 77.7488 93.3972 79.0725C91.1615 80.5434 88.8081 81.8377 86.7195 83.5733C86.2195 83.9851 85.7194 84.4558 85.131 84.6617C83.8367 85.1324 82.9542 86.0737 82.1305 87.0739C80.4243 89.0742 79.1006 91.3099 78.1298 93.7221C77.8651 94.3987 77.5415 95.0753 77.3062 95.7519C77.1885 96.046 77.2179 96.4285 77.5121 96.6638C77.8062 96.8697 78.1004 96.7815 78.3946 96.605L78.3652 96.6932ZM87.4844 87.8387C88.1021 88.0152 88.514 87.1621 89.1317 87.5151C89.1317 87.3386 89.1317 87.1621 89.1023 86.9562C89.1023 87.1327 89.1317 87.3092 89.1611 87.4857C88.6905 88.0741 88.1021 88.1035 87.4844 87.8387ZM96.5742 83.1026C96.1035 85.2206 94.868 87.1327 94.7503 89.339C94.7503 89.3978 94.6915 89.4861 94.6327 89.5449C94.3679 89.8391 94.1032 90.2215 93.6325 90.1332C93.0442 90.0156 93.3383 89.4861 93.3089 89.2213C93.4854 86.6915 94.8092 84.75 96.0153 82.7202C96.1035 82.5731 96.3683 82.4849 96.5448 82.3966C96.5448 82.632 96.6036 82.8673 96.5448 83.1026H96.5742ZM96.3977 79.0431C96.633 78.9843 96.8978 78.8666 97.0154 79.1313C97.0743 79.3078 96.986 79.6609 96.8389 79.7491C96.1035 80.1609 95.8976 81.6024 94.5738 80.9258C94.5738 80.9258 94.5738 80.9552 94.5738 80.9846C94.5738 80.9846 94.5738 80.9846 94.5738 80.9552C94.8092 79.955 95.3975 79.3078 96.4271 79.0725L96.3977 79.0431ZM92.4852 84.6617C92.8088 84.544 93.3972 84.5735 93.4266 85.103C93.5443 86.7797 90.7202 90.7216 88.9552 91.3982C88.6905 91.5158 88.514 91.4276 88.3963 91.1334C88.4551 90.9275 88.4846 90.6922 88.6022 90.4863C89.6024 88.8095 90.5732 87.1327 91.6027 85.456C91.8087 85.1324 92.1322 84.7794 92.4852 84.6323V84.6617ZM87.0137 85.8678C88.0139 84.6617 88.4257 82.985 90.0731 82.3378C90.3084 82.2495 90.5143 82.1319 90.7202 82.0436C91.0732 82.1319 91.0144 82.3672 90.9262 82.5731C90.4261 83.5145 89.8966 84.4852 89.22 85.2206C87.0431 87.6328 85.5723 90.5745 83.2778 92.8984C82.9836 93.1926 82.66 93.5456 82.2776 93.222C81.8952 92.8984 82.1894 92.4866 82.3659 92.1336C83.5719 89.8097 85.3664 87.8976 87.0137 85.8972V85.8678ZM79.4536 93.4574C80.3361 91.1628 81.6893 89.1625 83.5131 87.5151C83.6308 87.4269 83.7779 87.3681 83.9249 87.3092C84.1309 87.3681 84.1897 87.5151 84.072 87.6916C82.7483 89.8097 81.6598 92.0748 80.0125 93.9574C79.9243 94.0457 79.6889 94.1339 79.5713 94.0751C79.2771 93.9574 79.3947 93.6927 79.483 93.4574H79.4536Z" fill="#2A2C35"/>
<path d="M65.8631 50.2735C66.9809 49.8029 68.2458 50.656 69.3343 49.8617C70.1873 49.2439 71.0993 48.685 72.0112 48.1555C72.5701 47.8319 73.0996 47.3319 73.8056 47.5084C75.953 48.0084 77.9828 47.3319 80.042 47.0965C82.2483 46.8612 84.5134 46.2728 86.6019 47.8025C87.1315 48.2144 87.8963 48.5674 88.6905 48.2732C88.9847 48.1555 89.3377 47.7437 88.9553 47.5672C87.7198 46.9788 87.2491 45.3903 85.8077 45.1256C84.2192 44.802 82.6013 44.5078 80.9833 44.2431C80.4832 44.1548 79.8067 44.1548 79.7478 44.7138C79.6007 46.0375 78.8065 45.4786 78.1593 45.3609C76.6296 45.1256 75.1294 44.8314 73.8056 44.5961C73.1879 44.6843 72.5995 44.5961 72.423 44.802C71.4523 45.9198 70.0108 46.1552 68.893 46.92C67.8928 47.5966 66.8632 48.3026 65.8631 48.9792C65.5689 49.1851 65.4512 49.4793 65.4512 49.8323C65.4512 50.1265 65.6866 50.3912 65.8631 50.3324V50.2735Z" fill="#2A2C35"/>
<path d="M105.046 46.5373C107.37 45.8607 109.694 45.3018 112.018 44.6546C113.018 44.3605 113.901 44.4487 114.783 45.037C115.313 45.39 115.901 45.6842 116.519 45.9195C116.666 45.9784 116.989 45.7725 117.137 45.6254C117.313 45.4489 117.313 45.1841 117.137 44.9782C115.989 43.9192 114.724 43.0367 112.9 43.272C111.577 43.831 111.9 43.2132 112.312 42.3013C112.547 41.7718 111.989 41.6835 111.577 41.7129C109.017 41.8894 106.605 42.5366 104.546 44.1545C104.223 44.3899 103.899 44.7135 103.752 45.037C103.517 45.5665 103.664 46.1843 104.017 46.6256C104.311 46.9786 104.693 46.655 105.076 46.5373H105.046Z" fill="#2A2C35"/>
<path d="M98.6924 86.7795C98.6335 87.1031 98.8689 87.4267 99.2219 87.4855C99.6926 87.5444 99.6631 87.1325 99.6631 86.8384C99.5749 85.2793 99.8396 83.7496 100.487 82.3376C100.575 82.1317 100.752 81.9258 100.869 81.7198C100.987 81.9258 101.134 82.1023 101.222 82.3082C101.546 83.1024 101.399 83.8967 101.34 84.7204C101.31 85.2793 101.252 85.8382 101.281 86.4265C101.281 86.6619 101.399 86.8972 101.663 86.9855C101.928 87.0737 102.164 86.9855 102.281 86.7501C102.722 85.8676 103.37 84.8086 102.958 84.0144C102.399 83.0142 102.399 82.014 102.222 80.9844C102.075 80.1607 101.428 79.6018 100.957 78.9841C100.781 78.7487 100.399 78.837 100.104 78.9841C99.8396 80.1607 99.5749 81.3374 99.3396 82.5141C99.0748 83.9555 98.8689 85.3969 98.663 86.8384L98.6924 86.7795Z" fill="#2A2C35"/>
<path d="M41.8591 63.0403C42.4769 63.4521 42.8299 64.1287 43.2123 64.7465C43.3888 65.0406 43.7418 65.2171 44.036 65.07C44.3301 64.923 44.4478 64.5111 44.3007 64.2169C43.8006 63.1874 43.2123 62.246 42.1239 61.6871C40.5354 60.8928 39.9764 61.2164 39.7117 63.0109C39.5352 64.1875 39.8294 65.2465 40.3295 66.3055C40.9766 67.6881 42.0356 68.7471 43.1241 69.7473C43.1241 69.7473 43.1241 69.7179 43.1241 69.6885C43.1241 69.6885 43.1241 69.7473 43.1535 69.7473C43.1829 69.7473 43.2123 69.6885 43.2711 69.6885C43.1829 69.6591 43.1535 69.6591 43.1535 69.6885C43.4476 68.5118 42.4475 67.8941 41.918 67.0998C41.1531 65.982 40.653 64.8347 40.859 63.4815C40.9766 62.8049 41.359 62.7461 41.8885 63.0991L41.8591 63.0403Z" fill="#2A2C35"/>
<path d="M77.3651 10.149C76.9239 10.4726 76.4532 10.855 76.0708 11.2374C75.806 11.5022 75.5119 11.9434 75.9237 12.2964C76.2767 12.62 76.8062 12.4729 76.9239 12.0611C77.3946 10.6785 78.6889 10.1784 79.7479 9.47239C82.1013 7.88388 84.3664 6.1777 87.1021 5.26578C87.308 5.20694 87.5434 5.03044 87.4257 4.73627C87.3375 4.50094 87.1315 4.38327 86.8668 4.32444C85.7195 4.17735 84.8959 5.00103 83.9251 5.29519L83.9839 5.23636C83.9839 5.23636 83.9545 5.23636 83.9251 5.23636C83.9251 5.23636 83.9251 5.26578 83.9251 5.29519C81.7188 6.91312 79.542 8.53105 77.3357 10.149H77.3651Z" fill="#2A2C35"/>
<path d="M102.075 69.3352C102.222 69.9824 102.134 70.7472 102.84 71.1885C102.752 70.5707 102.722 69.9236 102.605 69.3058C102.075 66.3641 101.575 63.4224 101.016 60.4513C100.957 60.0689 100.81 59.5983 100.251 59.7748C100.104 59.8336 100.016 60.1572 99.9277 60.3043C100.016 60.5984 100.104 60.8338 100.163 61.0691C100.81 63.8343 101.457 66.57 102.105 69.3352H102.075Z" fill="#2A2C35"/>
<path d="M57.6558 91.2512C57.744 91.0453 57.8911 90.8394 57.95 90.6041C58.9501 86.1915 59.7444 81.7202 60.9799 77.3371C61.0387 77.1017 61.3329 76.6605 60.774 76.6017C60.6269 76.6017 60.4504 76.8958 60.3033 77.0723C60.2445 77.1312 60.2445 77.2194 60.2151 77.3077C58.9796 81.5731 58.4206 85.9856 57.5087 90.81C57.5087 90.6335 57.391 90.9571 57.6852 91.2218L57.6558 91.2512Z" fill="#2A2C35"/>
<path d="M55.8907 85.603C57.0379 81.2199 57.4497 76.6897 58.95 72.3948C58.9794 72.2772 58.8912 72.1007 58.8323 71.9536C58.6853 72.0124 58.5382 72.0712 58.4499 72.1595C57.9793 72.5419 57.9204 73.1302 57.7733 73.6892C56.7143 77.7487 56.126 81.8965 55.42 86.0148C55.6259 85.956 55.8024 85.8677 55.8612 85.603H55.8907Z" fill="#2A2C35"/>
<path d="M83.9544 10.6786C85.2782 9.47248 86.6313 8.32522 88.1904 7.50155C88.7494 7.20738 89.3377 6.8838 89.8672 6.5308C90.1319 6.35429 90.3379 6.03071 90.1025 5.70712C89.926 5.41296 89.6024 5.3247 89.2494 5.38354C89.1612 5.38354 89.0729 5.38354 89.0141 5.44237C87.0432 6.82496 85.0722 8.23697 83.3367 9.94315C83.1896 10.0902 83.1602 10.3844 83.1013 10.5609C83.3661 10.9433 83.6308 10.9433 83.8956 10.6786H83.9544Z" fill="#2A2C35"/>
<path d="M63.5686 99.3409C64.0393 99.2527 63.6569 98.8114 63.6569 98.5173C63.7451 94.3401 64.0981 90.1923 65.216 86.1622C65.2748 85.9563 65.1571 85.7209 65.1277 85.4856C64.9512 85.6327 64.6865 85.7503 64.5982 85.9563C64.3923 86.3975 64.2452 86.8682 64.1275 87.3389C63.2156 91.016 63.5098 94.7813 62.9509 98.5761C62.9509 98.8997 63.0097 99.4292 63.5098 99.3409H63.5686Z" fill="#2A2C35"/>
<path d="M88.7494 10.5018C88.7494 10.5018 88.9259 10.7666 89.073 10.8254C89.3378 10.9431 89.5437 10.796 89.6908 10.5901C90.8086 9.23689 92.3971 8.58972 93.8385 7.73663C94.3092 7.44246 94.8093 7.1483 95.2505 6.82471C95.4565 6.67763 95.5447 6.44229 95.3976 6.20696C95.2505 5.97162 94.9858 5.9422 94.7505 6.03046C92.7207 7.03063 90.7203 8.08964 89.073 9.64873C88.8671 9.85465 88.6023 10.1194 88.72 10.5018H88.7494Z" fill="#2A2C35"/>
<path d="M53.9492 78.1901C53.9492 78.1901 54.2727 78.1019 54.3022 78.0136C55.3023 74.7483 56.2731 71.5125 57.2438 68.2472C57.3027 68.0119 57.3321 67.7471 57.0379 67.7177C56.7732 67.7177 56.6261 67.953 56.5673 68.1884C55.9495 70.277 55.3317 72.395 54.7434 74.4836C54.3904 75.7191 53.8903 76.8958 53.9786 78.2195L53.9492 78.1901Z" fill="#2A2C35"/>
<path d="M51.7428 89.3393C51.684 89.6923 51.9781 90.0748 52.0958 90.4572C52.1546 90.6631 52.2723 90.7808 52.39 90.6925C52.5076 90.6337 52.6253 90.4572 52.5959 90.3689C51.9781 86.8095 53.0371 83.456 53.8608 80.073C54.0079 79.4847 54.0961 78.8669 53.8902 78.2492C53.7431 78.4257 53.5666 78.6022 53.5078 78.8081C52.6253 82.2793 52.1546 85.8093 51.684 89.3393H51.7428Z" fill="#2A2C35"/>
<path d="M66.2751 99.135C66.5987 99.135 66.6281 98.8114 66.6281 98.5761C66.6281 97.1935 66.834 95.8403 67.0399 94.4577C67.2164 93.1634 67.5106 91.8984 67.8342 90.6629C67.9224 90.3688 68.0401 89.9863 67.6282 89.8981C67.2164 89.8098 67.0987 90.2217 66.9811 90.4864C66.8634 90.7806 66.9222 91.1336 66.834 91.4572C66.1868 93.7517 66.481 96.1345 65.9809 98.6055C65.9809 98.6937 65.775 99.1056 66.2751 99.135Z" fill="#2A2C35"/>
<path d="M53.4491 65.6583C53.5079 65.4524 53.4196 65.1582 53.1549 65.07C52.9195 64.9817 52.6842 65.0112 52.5077 65.2171C52.2135 65.5112 52.037 65.8348 52.0076 66.2761C51.7429 68.9236 50.8604 71.424 50.272 74.0127C50.4191 73.9539 50.6839 73.9245 50.7133 73.8362C51.6546 71.1299 52.5665 68.3941 53.4785 65.6877L53.4491 65.6583Z" fill="#2A2C35"/>
<path d="M46.3597 71.1887C45.8596 71.1887 45.6537 71.5123 45.5654 71.9535C45.3595 72.9243 45.0065 72.7478 44.5064 72.1595C44.2417 71.8653 43.9181 71.4829 43.5062 71.9535C43.2121 72.2771 43.5356 72.5125 43.6827 72.7772C43.9181 73.189 44.0946 73.6597 44.3887 74.0421C44.7123 74.454 45.2124 74.5716 45.7125 74.3657C46.3597 74.1304 47.2128 72.6595 47.1245 71.983C47.0657 71.5417 46.8009 71.2475 46.3597 71.1887Z" fill="#2A2C35"/>
<path d="M101.193 93.8105C101.016 94.2223 101.046 94.6635 101.487 94.84C102.075 95.046 102.722 95.1342 103.37 95.2813C104.429 95.193 105.429 94.9283 106.282 94.2517C106.547 94.0164 106.635 93.7222 106.458 93.3986C106.311 93.1339 106.047 93.1633 105.841 93.2515C104.576 93.7516 103.311 94.34 101.958 93.3986C101.693 93.1927 101.369 93.5163 101.222 93.8399L101.193 93.8105Z" fill="#2A2C35"/>
<path d="M93.9855 10.2373C94.2208 10.9433 94.6326 10.9727 95.3092 10.7668C96.2506 10.4726 96.28 9.32537 97.1625 9.00179C97.5449 8.8547 98.2215 8.56054 97.9273 8.03103C97.6626 7.56036 97.0448 8.03103 96.6036 8.08987C95.6916 8.23695 95.0151 8.8547 94.3385 9.41362C94.0737 9.61954 93.9266 9.88429 94.0149 10.2373H93.9855Z" fill="#2A2C35"/>
<path d="M98.7806 11.3553C99.8102 10.6199 101.046 10.1492 101.899 9.17843C101.987 9.09018 102.016 8.85484 101.958 8.73718C101.928 8.61951 101.752 8.56067 101.575 8.41359C100.516 9.20784 99.0159 9.26668 98.1628 10.4434C98.0452 10.5904 98.104 10.914 98.1628 11.1199C98.2511 11.3847 98.5453 11.4729 98.7218 11.3259L98.7806 11.3553Z" fill="#2A2C35"/>
<path d="M53.2138 72.6302C53.2138 72.6302 53.4491 72.4243 53.508 72.2772C54.0081 70.6593 54.4787 69.012 54.9494 67.3646C55.0082 67.1587 54.9788 66.894 54.5964 66.894C54.4787 67.041 54.3022 67.2175 54.1846 67.4235C53.4197 68.8943 53.5668 70.5711 53.1255 72.1302C53.0961 72.2772 53.1844 72.4243 53.2138 72.6008V72.6302Z" fill="#2A2C35"/>
<path d="M69.3932 99.6353C69.8345 99.6353 69.6285 99.1646 69.6285 98.8999C69.7168 97.6938 69.7462 96.4877 69.8345 95.2816C69.8345 95.0463 69.9815 94.7521 69.7168 94.6639C69.4226 94.5462 69.3344 94.8698 69.2755 95.1051C69.1285 96.0465 68.9814 97.0172 68.8931 97.7232C68.8931 98.2821 68.8931 98.6057 68.8931 98.9293C68.8931 99.2529 69.0108 99.6647 69.3638 99.6353H69.3932Z" fill="#2A2C35"/>
<path d="M54.3024 94.1929C54.5965 94.1929 54.6259 93.9281 54.6259 93.7222C54.8024 92.1631 55.0084 90.604 55.1849 89.0449C54.1259 90.4569 54.2435 92.1337 54.1847 93.781C54.1847 93.9281 54.2729 94.2223 54.2729 94.2223L54.3024 94.1929Z" fill="#2A2C35"/>
<path d="M71.9525 101.341C72.2467 101.341 72.2173 101.077 72.2173 100.841C72.2173 100.371 72.2173 99.8706 72.2173 99.3705C72.2761 99.0469 72.335 98.7233 72.3938 98.3997C72.4526 98.1056 72.5997 97.7231 72.129 97.6349C71.7466 97.5466 71.4819 97.8702 71.3936 98.135C71.1583 99.1057 71.2171 100.076 71.629 100.988C71.6878 101.135 71.8349 101.312 71.9231 101.312L71.9525 101.341Z" fill="#2A2C35"/>
<path d="M50.625 84.3085C50.625 84.3085 50.7427 84.5439 50.8309 84.691C50.9192 84.5733 51.0663 84.4262 51.0663 84.3085C50.978 82.5435 51.684 80.9256 51.7428 79.19C50.5367 80.7197 50.8309 82.5729 50.625 84.338V84.3085Z" fill="#2A2C35"/>
<path d="M74.4233 104.665C75.0999 104.665 74.7175 103.606 74.7763 103.018C74.8351 102.694 74.8645 102.4 74.9234 102.076C74.9234 101.841 74.9234 101.576 74.6586 101.488C74.2762 101.37 74.0703 101.723 73.9526 101.959C73.8055 102.223 73.7173 102.576 73.8055 102.841C73.982 103.488 73.8055 104.635 74.4527 104.635L74.4233 104.665Z" fill="#2A2C35"/>
<path d="M126.756 122.903C126.756 122.433 127.491 121.727 126.521 121.58C125.785 121.462 125.756 122.256 125.638 122.786C125.52 123.256 125.462 123.727 125.373 124.168C125.491 125.345 125.638 126.463 126.079 127.522C126.226 127.845 126.079 128.434 126.521 128.493C126.991 128.522 127.109 128.022 127.197 127.61C127.315 126.992 127.58 125.845 127.433 125.786C125.844 125.08 126.785 123.904 126.756 122.903Z" fill="#2A2C35"/>
<path d="M38.6525 50.7736C38.6525 50.7736 38.476 50.7736 38.4172 50.7736C37.5641 51.2148 37.6229 52.0679 37.5641 52.8328C37.5641 53.0681 37.77 53.3328 38.0053 53.274C38.829 53.0975 38.6525 52.3033 38.8584 51.7737C38.9467 51.5678 38.9761 51.3031 38.9761 51.0677C38.9761 50.9795 38.7702 50.8618 38.6819 50.7736H38.6525Z" fill="#2A2C35"/>
<path d="M38.77 48.7439C38.6818 49.0381 38.5641 49.5087 38.8877 49.6264C39.4172 49.8323 39.5055 49.2734 39.6231 48.9204C39.9173 48.1261 40.3586 47.3613 40.2703 46.4494C39.2995 46.8906 39.0642 47.832 38.77 48.7439Z" fill="#2A2C35"/>
<path d="M67.4515 150.467C67.3044 152.409 67.0397 154.35 66.8337 156.292C66.8337 156.557 66.8926 156.762 67.1573 156.821C67.4515 156.88 67.628 156.674 67.6868 156.439C67.9222 155.262 68.3046 154.086 68.2457 152.85C68.0398 148.026 68.8341 143.29 69.4224 138.524C69.5695 137.377 69.5401 136.377 69.1283 135.318C68.7164 136.288 68.334 137.2 68.2752 138.318C68.0692 142.378 67.7457 146.437 67.4221 150.467H67.4515Z" fill="#2A2C35"/>
<path d="M70.7758 137.583C70.4817 140.966 70.2169 144.378 69.8933 147.79C69.7168 149.644 69.4815 151.497 69.2756 153.38C69.2756 153.38 69.2756 153.38 69.305 153.38C69.305 153.556 69.2756 153.703 69.305 153.88C69.3638 154.321 68.9814 154.997 69.658 155.086C70.2463 155.174 70.3052 154.497 70.3934 154.027C70.4522 153.703 70.5111 153.38 70.4817 153.056C70.364 147.908 71.1288 142.848 71.8642 137.789C71.9819 137.024 72.5114 136.2 71.8642 135.494C71.5112 135.112 70.8935 136.141 70.7758 137.612V137.583Z" fill="#2A2C35"/>
</g>
</g>
<defs>
<clipPath id="clip0_96_17466">
<rect width="170" height="170" fill="white"/>
</clipPath>
<clipPath id="clip1_96_17466">
<rect width="156.38" height="170" fill="white" transform="translate(7 0.00012207)"/>
</clipPath>
</defs>
</svg>
