<svg width="348" height="48" viewBox="0 0 348 48" fill="none" xmlns="http://www.w3.org/2000/svg">
<path fill-rule="evenodd" clip-rule="evenodd" d="M24.8563 17.5925L19.2249 23.2239C18.8794 23.5695 18.8794 24.1298 19.2249 24.4754L24.8563 30.1068C25.2019 30.4523 25.7622 30.4523 26.1078 30.1068C26.4533 29.7612 26.4533 29.2009 26.1078 28.8554L21.1021 23.8496L26.1078 18.8439C26.4533 18.4984 26.4533 17.9381 26.1078 17.5925C25.7622 17.247 25.2019 17.247 24.8563 17.5925Z" fill="#2A2C35"/>
<circle cx="84" cy="24" r="24" fill="#2A2C35"/>
<path d="M82.216 30V29.296C82.5467 29.2747 82.8027 29.2053 82.984 29.088C83.176 28.9707 83.3147 28.7947 83.4 28.56C83.4853 28.3147 83.528 28 83.528 27.616L83.496 20.448L81.624 21.616L81.224 20.976L84.52 18.544H85.208L85.224 27.968C85.224 28.192 85.2187 28.416 85.208 28.64C85.208 28.8533 85.1973 29.0347 85.176 29.184C85.3787 29.1627 85.5973 29.152 85.832 29.152C86.0667 29.1413 86.28 29.1307 86.472 29.12V30H82.216Z" fill="white"/>
<path d="M140.915 30C140.915 29.4347 140.995 28.9333 141.155 28.496C141.326 28.0587 141.55 27.6587 141.827 27.296C142.104 26.9333 142.419 26.5867 142.771 26.256C143.123 25.9253 143.48 25.584 143.843 25.232C144.568 24.5493 145.086 23.9253 145.395 23.36C145.715 22.784 145.875 22.224 145.875 21.68C145.875 21.296 145.822 20.928 145.715 20.576C145.608 20.2133 145.422 19.9147 145.155 19.68C144.888 19.4453 144.52 19.3333 144.051 19.344C143.656 19.344 143.304 19.44 142.995 19.632C142.696 19.8133 142.488 20.0427 142.371 20.32C142.488 20.4267 142.568 20.5493 142.611 20.688C142.654 20.8267 142.675 20.9547 142.675 21.072C142.675 21.168 142.643 21.2853 142.579 21.424C142.526 21.552 142.435 21.664 142.307 21.76C142.179 21.856 142.008 21.904 141.795 21.904C141.528 21.8933 141.32 21.7973 141.171 21.616C141.032 21.424 140.963 21.1947 140.963 20.928C140.963 20.704 141.032 20.4533 141.171 20.176C141.31 19.8987 141.523 19.6373 141.811 19.392C142.099 19.1467 142.451 18.944 142.867 18.784C143.294 18.624 143.79 18.544 144.355 18.544C144.782 18.544 145.198 18.5973 145.603 18.704C146.008 18.8 146.376 18.9653 146.707 19.2C147.038 19.424 147.299 19.7227 147.491 20.096C147.683 20.4693 147.779 20.9333 147.779 21.488C147.779 21.7547 147.726 22.0427 147.619 22.352C147.512 22.6507 147.331 22.976 147.075 23.328C146.83 23.68 146.499 24.064 146.083 24.48C145.667 24.896 145.144 25.36 144.515 25.872C143.843 26.4267 143.304 26.9493 142.899 27.44C142.494 27.92 142.259 28.32 142.195 28.64L145.123 28.72C145.56 28.7307 145.939 28.7253 146.259 28.704C146.59 28.6827 146.846 28.5973 147.027 28.448C147.219 28.288 147.315 28.016 147.315 27.632H147.971L147.859 30H140.915Z" fill="#2A2C35"/>
<path d="M206.708 27.968C206.708 28.2027 206.703 28.432 206.692 28.656C206.692 28.8693 206.676 29.0507 206.644 29.2C206.847 29.1893 207.055 29.184 207.268 29.184C207.492 29.1733 207.69 29.1627 207.86 29.152V30H203.668V29.296H203.78C204.1 29.2747 204.351 29.2 204.532 29.072C204.714 28.9333 204.842 28.736 204.916 28.48C204.991 28.224 205.028 27.8933 205.028 27.488V26.976H200.34V25.952L206.036 18.544H206.708V25.856L208.308 25.872V26.976H206.708V27.968ZM204.996 21.184L201.54 25.792L205.028 25.824V21.184H204.996Z" fill="#2A2C35"/>
<path d="M264.204 30.256C263.511 30.256 262.924 30.144 262.444 29.92C261.964 29.6853 261.591 29.4027 261.324 29.072C261.068 28.7307 260.94 28.4 260.94 28.08C260.94 27.8133 261.015 27.584 261.164 27.392C261.314 27.2 261.522 27.0987 261.788 27.088C262.012 27.0773 262.183 27.12 262.3 27.216C262.428 27.3013 262.514 27.408 262.556 27.536C262.61 27.664 262.636 27.7867 262.636 27.904C262.636 28 262.62 28.1067 262.588 28.224C262.567 28.3307 262.524 28.4373 262.46 28.544C262.514 28.7467 262.636 28.9227 262.828 29.072C263.02 29.2107 263.244 29.312 263.5 29.376C263.756 29.44 263.991 29.4667 264.204 29.456C264.695 29.4453 265.09 29.3173 265.388 29.072C265.687 28.816 265.906 28.496 266.044 28.112C266.194 27.728 266.268 27.3227 266.268 26.896C266.268 26.6187 266.247 26.3093 266.204 25.968C266.162 25.616 266.066 25.2853 265.916 24.976C265.767 24.656 265.538 24.3947 265.228 24.192C264.919 23.9787 264.503 23.872 263.98 23.872C263.81 23.872 263.602 23.8933 263.356 23.936C263.111 23.9787 262.86 24.0427 262.604 24.128C262.359 24.2133 262.135 24.32 261.932 24.448L261.404 24L261.356 18.8H265.5C266.034 18.8 266.412 18.7253 266.636 18.576C266.86 18.4267 266.972 18.1547 266.972 17.76H267.596L267.5 20.032L262.252 20.144V23.44C262.508 23.3333 262.834 23.2373 263.228 23.152C263.623 23.056 264.028 23.008 264.444 23.008C265.106 23.008 265.671 23.1093 266.14 23.312C266.62 23.5147 267.01 23.7867 267.308 24.128C267.618 24.4693 267.842 24.8533 267.98 25.28C268.13 25.7067 268.204 26.144 268.204 26.592C268.204 27.392 268.012 28.0693 267.628 28.624C267.255 29.168 266.764 29.5787 266.156 29.856C265.548 30.1227 264.898 30.256 264.204 30.256Z" fill="#2A2C35"/>
<path fill-rule="evenodd" clip-rule="evenodd" d="M323.144 17.5925L328.775 23.2239C329.121 23.5695 329.121 24.1298 328.775 24.4754L323.144 30.1068C322.798 30.4523 322.238 30.4523 321.892 30.1068C321.547 29.7612 321.547 29.2009 321.892 28.8554L326.898 23.8496L321.892 18.8439C321.547 18.4984 321.547 17.9381 321.892 17.5925C322.238 17.247 322.798 17.247 323.144 17.5925Z" fill="#2A2C35"/>
</svg>
