<svg width="25" height="24" viewBox="0 0 25 24" fill="none" xmlns="http://www.w3.org/2000/svg">
<path d="M12.5 2C6.97715 2 2.5 6.47715 2.5 12C2.5 17.5229 6.97715 22 12.5 22C18.0229 22 22.5 17.5229 22.5 12C22.5 6.47715 18.0229 2 12.5 2ZM17.6976 8.32563L15.9215 16.8047C15.9 16.9072 15.8531 17.0028 15.7851 17.0824C15.7171 17.1621 15.6301 17.2235 15.5322 17.2608C15.4343 17.2981 15.3285 17.3102 15.2247 17.296C15.1209 17.2817 15.0223 17.2417 14.938 17.1794L12.3546 15.2708L10.7895 16.7473C10.769 16.7667 10.7448 16.7817 10.7185 16.7916C10.6921 16.8015 10.664 16.8061 10.6359 16.805C10.6077 16.8039 10.5801 16.7973 10.5545 16.7854C10.529 16.7735 10.5061 16.7567 10.4871 16.7359L10.4535 16.6989L10.7254 14.0671L15.6271 9.58852C15.6514 9.5664 15.6665 9.53601 15.6694 9.50333C15.6723 9.47065 15.6629 9.43806 15.643 9.41199C15.6231 9.38591 15.5941 9.36825 15.5618 9.36248C15.5295 9.35671 15.4962 9.36325 15.4685 9.38082L9.1998 13.3484L6.5 12.4417C6.42821 12.4176 6.36565 12.3718 6.32089 12.3107C6.27612 12.2497 6.25136 12.1762 6.24999 12.1005C6.24862 12.0248 6.27071 11.9505 6.31324 11.8878C6.35576 11.8252 6.41663 11.7772 6.4875 11.7505L17.0508 7.77125C17.1323 7.74059 17.2205 7.73238 17.3062 7.74748C17.392 7.76258 17.4721 7.80043 17.5382 7.85709C17.6043 7.91375 17.654 7.98712 17.682 8.06954C17.7101 8.15197 17.7154 8.24041 17.6976 8.32563Z" fill="#2A2C35"/>
</svg>
